<svg xmlns="http://www.w3.org/2000/svg" xmlns:xlink="http://www.w3.org/1999/xlink" width="500" zoomAndPan="magnify" viewBox="0 0 375 374.999991" height="500" preserveAspectRatio="xMidYMid meet" version="1.2"><defs><clipPath id="deee2b9f58"><path d="M 306 162 L 327 162 L 327 184 L 306 184 Z M 306 162 "/></clipPath><clipPath id="2168d3a8a1"><path d="M 301.8125 165.335938 L 316.683594 151.589844 L 337.046875 173.621094 L 322.175781 187.367188 Z M 301.8125 165.335938 "/></clipPath><clipPath id="84c6300caa"><path d="M 301.8125 165.335938 L 316.683594 151.589844 L 337.046875 173.621094 L 322.175781 187.367188 Z M 301.8125 165.335938 "/></clipPath><clipPath id="2211283646"><path d="M 316 152 L 338 152 L 338 174 L 316 174 Z M 316 152 "/></clipPath><clipPath id="1bed1fa12b"><path d="M 312.484375 155.472656 L 327.355469 141.726562 L 347.71875 163.757812 L 332.847656 177.503906 Z M 312.484375 155.472656 "/></clipPath><clipPath id="c244346d9e"><path d="M 312.484375 155.472656 L 327.355469 141.726562 L 347.71875 163.757812 L 332.847656 177.503906 Z M 312.484375 155.472656 "/></clipPath></defs><g id="2a1d150a9f"><g clip-rule="nonzero" clip-path="url(#deee2b9f58)"><g clip-rule="nonzero" clip-path="url(#2168d3a8a1)"><g clip-rule="nonzero" clip-path="url(#84c6300caa)"><path style=" stroke:none;fill-rule:nonzero;fill:#1f48ff;fill-opacity:1;" d="M 326.871094 162.890625 L 308.953125 162.09375 C 305.492188 161.941406 304.910156 168.683594 309.007812 168.792969 L 320.160156 169.097656 L 319.308594 180.316406 C 319.046875 183.730469 325.710938 184.09375 325.902344 180.621094 Z M 326.871094 162.890625 "/></g></g></g><g clip-rule="nonzero" clip-path="url(#2211283646)"><g clip-rule="nonzero" clip-path="url(#1bed1fa12b)"><g clip-rule="nonzero" clip-path="url(#c244346d9e)"><path style=" stroke:none;fill-rule:nonzero;fill:#1f48ff;fill-opacity:1;" d="M 337.542969 153.027344 L 319.625 152.230469 C 316.164062 152.078125 315.578125 158.820312 319.679688 158.929688 L 330.828125 159.234375 L 329.976562 170.453125 C 329.71875 173.871094 336.382812 174.230469 336.574219 170.757812 Z M 337.542969 153.027344 "/></g></g></g><g style="fill:#373643;fill-opacity:1;"><g transform="translate(41.873547, 202.304302)"><path style="stroke:none" d="M 27.796875 -34.171875 C 28.828125 -34.171875 29.609375 -33.882812 30.140625 -33.3125 C 30.679688 -32.75 30.953125 -32.109375 30.953125 -31.390625 C 30.953125 -30.710938 30.679688 -30.085938 30.140625 -29.515625 C 29.609375 -28.941406 28.828125 -28.65625 27.796875 -28.65625 L 17.8125 -28.65625 L 17.875 -2.84375 C 17.875 -1.875 17.523438 -1.15625 16.828125 -0.6875 C 16.128906 -0.226562 15.421875 0 14.703125 0 C 13.953125 0 13.242188 -0.226562 12.578125 -0.6875 C 11.921875 -1.15625 11.59375 -1.875 11.59375 -2.84375 L 11.59375 -28.65625 L 1.65625 -28.65625 C 0.625 -28.65625 -0.128906 -28.941406 -0.609375 -29.515625 C -1.097656 -30.085938 -1.34375 -30.710938 -1.34375 -31.390625 C -1.34375 -32.109375 -1.097656 -32.75 -0.609375 -33.3125 C -0.128906 -33.882812 0.625 -34.171875 1.65625 -34.171875 Z M 27.796875 -34.171875 "/></g></g><g style="fill:#373643;fill-opacity:1;"><g transform="translate(71.434692, 202.304302)"><path style="stroke:none" d="M 15.34375 -4.78125 C 16.382812 -4.78125 17.40625 -4.921875 18.40625 -5.203125 C 19.40625 -5.492188 20.332031 -5.976562 21.1875 -6.65625 C 22.007812 -7.40625 22.816406 -7.753906 23.609375 -7.703125 C 24.398438 -7.648438 25.050781 -7.363281 25.5625 -6.84375 C 26.082031 -6.320312 26.34375 -5.675781 26.34375 -4.90625 C 26.34375 -4.132812 25.96875 -3.394531 25.21875 -2.6875 C 23.96875 -1.46875 22.484375 -0.613281 20.765625 -0.125 C 19.046875 0.351562 17.289062 0.570312 15.5 0.53125 C 12.71875 0.53125 10.257812 -0.0351562 8.125 -1.171875 C 6 -2.316406 4.335938 -3.910156 3.140625 -5.953125 C 1.941406 -7.992188 1.34375 -10.351562 1.34375 -13.03125 C 1.34375 -15.96875 1.914062 -18.546875 3.0625 -20.765625 C 4.207031 -22.984375 5.820312 -24.71875 7.90625 -25.96875 C 10 -27.21875 12.476562 -27.84375 15.34375 -27.84375 C 18.207031 -27.84375 20.640625 -27.257812 22.640625 -26.09375 C 24.640625 -24.9375 26.164062 -23.3125 27.21875 -21.21875 C 28.28125 -19.125 28.8125 -16.679688 28.8125 -13.890625 C 28.8125 -13.003906 28.628906 -12.242188 28.265625 -11.609375 C 27.910156 -10.984375 26.96875 -10.671875 25.4375 -10.671875 L 7.5625 -10.671875 C 8.0625 -8.921875 9.007812 -7.5 10.40625 -6.40625 C 11.800781 -5.320312 13.445312 -4.78125 15.34375 -4.78125 Z M 15.40625 -22.53125 C 13.320312 -22.53125 11.582031 -21.878906 10.1875 -20.578125 C 8.800781 -19.273438 7.910156 -17.566406 7.515625 -15.453125 L 23.125 -15.453125 C 22.945312 -17.566406 22.25 -19.273438 21.03125 -20.578125 C 19.8125 -21.878906 17.9375 -22.53125 15.40625 -22.53125 Z M 15.40625 -22.53125 "/></g></g><g style="fill:#373643;fill-opacity:1;"><g transform="translate(102.605365, 202.304302)"><path style="stroke:none" d="M 21.1875 -19.953125 C 20.363281 -20.921875 19.398438 -21.601562 18.296875 -22 C 17.191406 -22.394531 16.101562 -22.59375 15.03125 -22.59375 C 12.664062 -22.59375 10.765625 -21.773438 9.328125 -20.140625 C 7.898438 -18.515625 7.1875 -16.328125 7.1875 -13.578125 C 7.1875 -10.929688 7.925781 -8.800781 9.40625 -7.1875 C 10.894531 -5.582031 12.835938 -4.78125 15.234375 -4.78125 C 16.304688 -4.78125 17.394531 -4.96875 18.5 -5.34375 C 19.613281 -5.71875 20.601562 -6.332031 21.46875 -7.1875 C 22.25 -7.976562 23.023438 -8.390625 23.796875 -8.421875 C 24.566406 -8.460938 25.203125 -8.25 25.703125 -7.78125 C 26.203125 -7.3125 26.476562 -6.707031 26.53125 -5.96875 C 26.582031 -5.238281 26.269531 -4.5 25.59375 -3.75 C 24.195312 -2.21875 22.59375 -1.117188 20.78125 -0.453125 C 18.976562 0.203125 17.113281 0.53125 15.1875 0.53125 C 12.363281 0.53125 9.882812 -0.0546875 7.75 -1.234375 C 5.625 -2.410156 3.96875 -4.054688 2.78125 -6.171875 C 1.601562 -8.285156 1.015625 -10.734375 1.015625 -13.515625 C 1.015625 -16.421875 1.59375 -18.945312 2.75 -21.09375 C 3.914062 -23.238281 5.554688 -24.898438 7.671875 -26.078125 C 9.785156 -27.253906 12.238281 -27.84375 15.03125 -27.84375 C 16.988281 -27.84375 18.816406 -27.535156 20.515625 -26.921875 C 22.222656 -26.316406 23.789062 -25.175781 25.21875 -23.5 C 25.863281 -22.75 26.140625 -22.015625 26.046875 -21.296875 C 25.960938 -20.585938 25.648438 -20 25.109375 -19.53125 C 24.578125 -19.0625 23.941406 -18.835938 23.203125 -18.859375 C 22.472656 -18.878906 21.800781 -19.242188 21.1875 -19.953125 Z M 21.1875 -19.953125 "/></g></g><g style="fill:#373643;fill-opacity:1;"><g transform="translate(129.430308, 202.304302)"><path style="stroke:none" d="M 17.765625 -27.84375 C 20.265625 -27.84375 22.390625 -27.296875 24.140625 -26.203125 C 25.898438 -25.117188 27.242188 -23.609375 28.171875 -21.671875 C 29.097656 -19.742188 29.5625 -17.492188 29.5625 -14.921875 L 29.5625 -2.796875 C 29.5625 -1.972656 29.300781 -1.300781 28.78125 -0.78125 C 28.269531 -0.257812 27.507812 0 26.5 0 C 25.613281 0 24.882812 -0.257812 24.3125 -0.78125 C 23.738281 -1.300781 23.453125 -1.972656 23.453125 -2.796875 L 23.453125 -15.03125 C 23.453125 -17.238281 22.921875 -19.03125 21.859375 -20.40625 C 20.804688 -21.789062 19.15625 -22.484375 16.90625 -22.484375 C 16.21875 -22.484375 15.414062 -22.328125 14.5 -22.015625 C 13.59375 -21.710938 12.707031 -21.222656 11.84375 -20.546875 C 10.988281 -19.867188 10.273438 -18.992188 9.703125 -17.921875 C 9.140625 -16.847656 8.859375 -15.523438 8.859375 -13.953125 L 8.859375 -2.796875 C 8.859375 -1.972656 8.597656 -1.300781 8.078125 -0.78125 C 7.554688 -0.257812 6.8125 0 5.84375 0 C 4.882812 0 4.117188 -0.257812 3.546875 -0.78125 C 2.972656 -1.300781 2.6875 -1.972656 2.6875 -2.796875 L 2.6875 -32.140625 C 2.6875 -32.960938 3.015625 -33.597656 3.671875 -34.046875 C 4.335938 -34.492188 5.046875 -34.71875 5.796875 -34.71875 C 6.578125 -34.71875 7.28125 -34.492188 7.90625 -34.046875 C 8.539062 -33.597656 8.859375 -32.960938 8.859375 -32.140625 L 8.859375 -24.84375 C 10.316406 -26.09375 11.832031 -26.90625 13.40625 -27.28125 C 14.988281 -27.65625 16.441406 -27.84375 17.765625 -27.84375 Z M 17.765625 -27.84375 "/></g></g><g style="fill:#373643;fill-opacity:1;"><g transform="translate(161.995897, 202.304302)"><path style="stroke:none" d="M 18.296875 -34.171875 C 19.585938 -34.171875 20.992188 -34.054688 22.515625 -33.828125 C 24.035156 -33.597656 25.472656 -33.160156 26.828125 -32.515625 C 28.179688 -31.867188 29.296875 -30.921875 30.171875 -29.671875 C 31.054688 -28.421875 31.5 -26.796875 31.5 -24.796875 C 31.5 -23.648438 31.21875 -22.46875 30.65625 -21.25 C 30.101562 -20.03125 29.328125 -19.132812 28.328125 -18.5625 C 30.191406 -17.8125 31.578125 -16.726562 32.484375 -15.3125 C 33.398438 -13.90625 33.859375 -12.253906 33.859375 -10.359375 C 33.859375 -8.285156 33.4375 -6.578125 32.59375 -5.234375 C 31.75 -3.890625 30.628906 -2.832031 29.234375 -2.0625 C 27.847656 -1.289062 26.300781 -0.753906 24.59375 -0.453125 C 22.894531 -0.148438 21.171875 0 19.421875 0 L 6.328125 0 C 5.472656 0 4.734375 -0.273438 4.109375 -0.828125 C 3.484375 -1.378906 3.171875 -2.050781 3.171875 -2.84375 L 3.171875 -31.328125 C 3.171875 -32.148438 3.484375 -32.828125 4.109375 -33.359375 C 4.734375 -33.898438 5.472656 -34.171875 6.328125 -34.171875 Z M 18.296875 -28.859375 L 9.390625 -28.859375 L 9.390625 -20.546875 L 18.453125 -20.546875 C 20.273438 -20.546875 21.875 -20.875 23.25 -21.53125 C 24.632812 -22.195312 25.328125 -23.285156 25.328125 -24.796875 C 25.328125 -25.972656 24.921875 -26.847656 24.109375 -27.421875 C 23.304688 -27.992188 22.359375 -28.375 21.265625 -28.5625 C 20.179688 -28.757812 19.191406 -28.859375 18.296875 -28.859375 Z M 20.984375 -15.234375 L 9.390625 -15.234375 L 9.390625 -5.3125 L 19.421875 -5.3125 C 20.710938 -5.3125 21.984375 -5.4375 23.234375 -5.6875 C 24.484375 -5.9375 25.507812 -6.425781 26.3125 -7.15625 C 27.125 -7.894531 27.53125 -8.960938 27.53125 -10.359375 C 27.53125 -12.003906 26.894531 -13.226562 25.625 -14.03125 C 24.351562 -14.832031 22.804688 -15.234375 20.984375 -15.234375 Z M 20.984375 -15.234375 "/></g></g><g style="fill:#373643;fill-opacity:1;"><g transform="translate(196.814821, 202.304302)"><path style="stroke:none" d="M 14.484375 -27.3125 C 15.453125 -27.3125 16.222656 -27.101562 16.796875 -26.6875 C 17.367188 -26.28125 17.65625 -25.613281 17.65625 -24.6875 C 17.65625 -23.820312 17.367188 -23.140625 16.796875 -22.640625 C 16.222656 -22.140625 15.453125 -21.890625 14.484375 -21.890625 C 12.234375 -21.890625 10.648438 -21.082031 9.734375 -19.46875 C 8.828125 -17.863281 8.375 -15.6875 8.375 -12.9375 L 8.375 -2.734375 C 8.375 -1.953125 8.085938 -1.300781 7.515625 -0.78125 C 6.941406 -0.257812 6.242188 0 5.421875 0 C 4.492188 0 3.742188 -0.257812 3.171875 -0.78125 C 2.597656 -1.300781 2.3125 -1.953125 2.3125 -2.734375 L 2.3125 -24.578125 C 2.3125 -25.429688 2.640625 -26.097656 3.296875 -26.578125 C 3.960938 -27.066406 4.671875 -27.3125 5.421875 -27.3125 C 6.171875 -27.3125 6.847656 -27.078125 7.453125 -26.609375 C 8.066406 -26.148438 8.375 -25.472656 8.375 -24.578125 L 8.375 -24.25 C 9.15625 -25.289062 10.0625 -26.0625 11.09375 -26.5625 C 12.132812 -27.0625 13.265625 -27.3125 14.484375 -27.3125 Z M 14.484375 -27.3125 "/></g></g><g style="fill:#373643;fill-opacity:1;"><g transform="translate(212.855952, 202.304302)"><path style="stroke:none" d="M 8.046875 -31.328125 C 8.046875 -30.441406 7.710938 -29.773438 7.046875 -29.328125 C 6.390625 -28.878906 5.6875 -28.65625 4.9375 -28.65625 C 4.144531 -28.65625 3.425781 -28.878906 2.78125 -29.328125 C 2.144531 -29.773438 1.828125 -30.441406 1.828125 -31.328125 L 1.828125 -32.03125 C 1.828125 -32.957031 2.144531 -33.632812 2.78125 -34.0625 C 3.425781 -34.5 4.144531 -34.71875 4.9375 -34.71875 C 5.6875 -34.71875 6.390625 -34.5 7.046875 -34.0625 C 7.710938 -33.632812 8.046875 -32.957031 8.046875 -32.03125 Z M 1.875 -24.6875 C 1.875 -25.539062 2.203125 -26.191406 2.859375 -26.640625 C 3.523438 -27.085938 4.21875 -27.3125 4.9375 -27.3125 C 5.6875 -27.3125 6.382812 -27.085938 7.03125 -26.640625 C 7.675781 -26.191406 8 -25.554688 8 -24.734375 L 8 -2.625 C 8 -1.726562 7.675781 -1.066406 7.03125 -0.640625 C 6.382812 -0.210938 5.6875 0 4.9375 0 C 4.21875 0 3.523438 -0.210938 2.859375 -0.640625 C 2.203125 -1.066406 1.875 -1.726562 1.875 -2.625 Z M 1.875 -24.6875 "/></g></g><g style="fill:#373643;fill-opacity:1;"><g transform="translate(221.654223, 202.304302)"><path style="stroke:none" d="M 25 -34.71875 C 25.75 -34.71875 26.453125 -34.5 27.109375 -34.0625 C 27.773438 -33.632812 28.109375 -32.957031 28.109375 -32.03125 L 28.109375 -2.734375 C 28.109375 -0.910156 27.070312 0 25 0 C 23.144531 0 22.179688 -0.859375 22.109375 -2.578125 C 20.960938 -1.578125 19.671875 -0.816406 18.234375 -0.296875 C 16.804688 0.222656 15.453125 0.484375 14.171875 0.484375 C 11.484375 0.484375 9.164062 -0.125 7.21875 -1.34375 C 5.269531 -2.5625 3.773438 -4.257812 2.734375 -6.4375 C 1.703125 -8.625 1.1875 -11.128906 1.1875 -13.953125 C 1.1875 -16.671875 1.738281 -19.066406 2.84375 -21.140625 C 3.945312 -23.210938 5.492188 -24.847656 7.484375 -26.046875 C 9.472656 -27.242188 11.769531 -27.84375 14.375 -27.84375 C 15.5625 -27.84375 16.832031 -27.609375 18.1875 -27.140625 C 19.550781 -26.679688 20.820312 -25.988281 22 -25.0625 L 22 -32.03125 C 22 -32.957031 22.3125 -33.632812 22.9375 -34.0625 C 23.5625 -34.5 24.25 -34.71875 25 -34.71875 Z M 14.328125 -4.9375 C 16.117188 -4.9375 17.738281 -5.335938 19.1875 -6.140625 C 20.632812 -6.941406 21.609375 -8.113281 22.109375 -9.65625 L 22.046875 -17.921875 C 21.441406 -19.390625 20.453125 -20.503906 19.078125 -21.265625 C 17.703125 -22.035156 16.28125 -22.421875 14.8125 -22.421875 C 12.550781 -22.421875 10.734375 -21.609375 9.359375 -19.984375 C 7.984375 -18.359375 7.296875 -16.328125 7.296875 -13.890625 C 7.296875 -11.285156 7.9375 -9.140625 9.21875 -7.453125 C 10.507812 -5.773438 12.210938 -4.9375 14.328125 -4.9375 Z M 14.328125 -4.9375 "/></g></g><g style="fill:#373643;fill-opacity:1;"><g transform="translate(252.717584, 202.304302)"><path style="stroke:none" d="M 25.0625 -27.3125 C 25.988281 -27.3125 26.738281 -27.003906 27.3125 -26.390625 C 27.882812 -25.785156 28.171875 -25.070312 28.171875 -24.25 L 28.171875 -1.65625 C 28.171875 0.945312 27.5625 3.144531 26.34375 4.9375 C 25.125 6.726562 23.492188 8.066406 21.453125 8.953125 C 19.421875 9.847656 17.148438 10.296875 14.640625 10.296875 C 12.566406 10.296875 10.691406 10.023438 9.015625 9.484375 C 7.335938 8.953125 5.765625 8.007812 4.296875 6.65625 C 3.578125 5.9375 3.234375 5.203125 3.265625 4.453125 C 3.304688 3.703125 3.59375 3.054688 4.125 2.515625 C 4.664062 1.984375 5.320312 1.679688 6.09375 1.609375 C 6.863281 1.535156 7.601562 1.820312 8.3125 2.46875 C 9.425781 3.4375 10.457031 4.0625 11.40625 4.34375 C 12.351562 4.632812 13.429688 4.78125 14.640625 4.78125 C 15.929688 4.78125 17.148438 4.554688 18.296875 4.109375 C 19.441406 3.660156 20.367188 2.953125 21.078125 1.984375 C 21.796875 1.015625 22.15625 -0.195312 22.15625 -1.65625 L 22.15625 -2.140625 C 20.9375 -1.253906 19.613281 -0.585938 18.1875 -0.140625 C 16.757812 0.304688 15.421875 0.53125 14.171875 0.53125 C 11.585938 0.53125 9.320312 -0.0546875 7.375 -1.234375 C 5.425781 -2.410156 3.90625 -4.070312 2.8125 -6.21875 C 1.726562 -8.363281 1.1875 -10.867188 1.1875 -13.734375 C 1.1875 -16.523438 1.738281 -18.972656 2.84375 -21.078125 C 3.945312 -23.191406 5.492188 -24.847656 7.484375 -26.046875 C 9.472656 -27.242188 11.769531 -27.84375 14.375 -27.84375 C 15.59375 -27.84375 16.890625 -27.664062 18.265625 -27.3125 C 19.640625 -26.957031 20.9375 -26.332031 22.15625 -25.4375 C 22.550781 -26.6875 23.519531 -27.3125 25.0625 -27.3125 Z M 14.328125 -4.875 C 15.972656 -4.875 17.535156 -5.234375 19.015625 -5.953125 C 20.503906 -6.671875 21.535156 -7.742188 22.109375 -9.171875 L 22.109375 -18.140625 C 21.429688 -19.492188 20.398438 -20.546875 19.015625 -21.296875 C 17.640625 -22.046875 16.238281 -22.421875 14.8125 -22.421875 C 12.550781 -22.421875 10.734375 -21.597656 9.359375 -19.953125 C 7.984375 -18.304688 7.296875 -16.21875 7.296875 -13.6875 C 7.296875 -11.039062 7.9375 -8.910156 9.21875 -7.296875 C 10.507812 -5.679688 12.210938 -4.875 14.328125 -4.875 Z M 14.328125 -4.875 "/></g></g><g style="fill:#373643;fill-opacity:1;"><g transform="translate(283.834613, 202.304302)"><path style="stroke:none" d="M 15.34375 -4.78125 C 16.382812 -4.78125 17.40625 -4.921875 18.40625 -5.203125 C 19.40625 -5.492188 20.332031 -5.976562 21.1875 -6.65625 C 22.007812 -7.40625 22.816406 -7.753906 23.609375 -7.703125 C 24.398438 -7.648438 25.050781 -7.363281 25.5625 -6.84375 C 26.082031 -6.320312 26.34375 -5.675781 26.34375 -4.90625 C 26.34375 -4.132812 25.96875 -3.394531 25.21875 -2.6875 C 23.96875 -1.46875 22.484375 -0.613281 20.765625 -0.125 C 19.046875 0.351562 17.289062 0.570312 15.5 0.53125 C 12.71875 0.53125 10.257812 -0.0351562 8.125 -1.171875 C 6 -2.316406 4.335938 -3.910156 3.140625 -5.953125 C 1.941406 -7.992188 1.34375 -10.351562 1.34375 -13.03125 C 1.34375 -15.96875 1.914062 -18.546875 3.0625 -20.765625 C 4.207031 -22.984375 5.820312 -24.71875 7.90625 -25.96875 C 10 -27.21875 12.476562 -27.84375 15.34375 -27.84375 C 18.207031 -27.84375 20.640625 -27.257812 22.640625 -26.09375 C 24.640625 -24.9375 26.164062 -23.3125 27.21875 -21.21875 C 28.28125 -19.125 28.8125 -16.679688 28.8125 -13.890625 C 28.8125 -13.003906 28.628906 -12.242188 28.265625 -11.609375 C 27.910156 -10.984375 26.96875 -10.671875 25.4375 -10.671875 L 7.5625 -10.671875 C 8.0625 -8.921875 9.007812 -7.5 10.40625 -6.40625 C 11.800781 -5.320312 13.445312 -4.78125 15.34375 -4.78125 Z M 15.40625 -22.53125 C 13.320312 -22.53125 11.582031 -21.878906 10.1875 -20.578125 C 8.800781 -19.273438 7.910156 -17.566406 7.515625 -15.453125 L 23.125 -15.453125 C 22.945312 -17.566406 22.25 -19.273438 21.03125 -20.578125 C 19.8125 -21.878906 17.9375 -22.53125 15.40625 -22.53125 Z M 15.40625 -22.53125 "/></g></g><g style="fill:#373643;fill-opacity:1;"><g transform="translate(83.514712, 231.456946)"><path style="stroke:none" d="M 4.8125 0.125 C 4.039062 0.125 3.367188 -0.0078125 2.796875 -0.28125 C 2.222656 -0.550781 1.773438 -0.914062 1.453125 -1.375 C 1.140625 -1.84375 0.957031 -2.359375 0.90625 -2.921875 L 1.703125 -2.921875 C 1.796875 -2.296875 2.085938 -1.742188 2.578125 -1.265625 C 3.066406 -0.785156 3.8125 -0.546875 4.8125 -0.546875 C 5.394531 -0.546875 5.898438 -0.648438 6.328125 -0.859375 C 6.765625 -1.078125 7.097656 -1.367188 7.328125 -1.734375 C 7.566406 -2.109375 7.6875 -2.519531 7.6875 -2.96875 C 7.6875 -3.539062 7.550781 -3.992188 7.28125 -4.328125 C 7.007812 -4.671875 6.664062 -4.925781 6.25 -5.09375 C 5.84375 -5.257812 5.289062 -5.441406 4.59375 -5.640625 C 3.820312 -5.835938 3.203125 -6.035156 2.734375 -6.234375 C 2.273438 -6.441406 1.882812 -6.753906 1.5625 -7.171875 C 1.238281 -7.597656 1.078125 -8.175781 1.078125 -8.90625 C 1.078125 -9.46875 1.222656 -9.984375 1.515625 -10.453125 C 1.816406 -10.921875 2.242188 -11.289062 2.796875 -11.5625 C 3.347656 -11.832031 3.984375 -11.96875 4.703125 -11.96875 C 5.753906 -11.96875 6.597656 -11.707031 7.234375 -11.1875 C 7.878906 -10.664062 8.265625 -10.03125 8.390625 -9.28125 L 7.578125 -9.28125 C 7.503906 -9.582031 7.351562 -9.890625 7.125 -10.203125 C 6.894531 -10.523438 6.566406 -10.789062 6.140625 -11 C 5.722656 -11.207031 5.222656 -11.3125 4.640625 -11.3125 C 3.847656 -11.3125 3.179688 -11.09375 2.640625 -10.65625 C 2.109375 -10.21875 1.84375 -9.640625 1.84375 -8.921875 C 1.84375 -8.347656 1.984375 -7.890625 2.265625 -7.546875 C 2.546875 -7.203125 2.890625 -6.941406 3.296875 -6.765625 C 3.710938 -6.597656 4.269531 -6.425781 4.96875 -6.25 C 5.738281 -6.03125 6.351562 -5.820312 6.8125 -5.625 C 7.269531 -5.425781 7.65625 -5.113281 7.96875 -4.6875 C 8.289062 -4.269531 8.453125 -3.703125 8.453125 -2.984375 C 8.453125 -2.453125 8.3125 -1.953125 8.03125 -1.484375 C 7.75 -1.015625 7.332031 -0.628906 6.78125 -0.328125 C 6.238281 -0.0234375 5.582031 0.125 4.8125 0.125 Z M 4.8125 0.125 "/></g></g><g style="fill:#373643;fill-opacity:1;"><g transform="translate(92.22356, 231.456946)"><path style="stroke:none" d="M 6.140625 0 L 2.140625 -4.203125 L 2.140625 0 L 1.390625 0 L 1.390625 -12.484375 L 2.140625 -12.484375 L 2.140625 -5.015625 L 6.078125 -9.15625 L 7.140625 -9.15625 L 2.703125 -4.609375 L 7.1875 0 Z M 6.140625 0 "/></g></g><g style="fill:#373643;fill-opacity:1;"><g transform="translate(98.957693, 231.456946)"><path style="stroke:none" d="M 1.765625 -11.203125 C 1.585938 -11.203125 1.4375 -11.257812 1.3125 -11.375 C 1.1875 -11.5 1.125 -11.660156 1.125 -11.859375 C 1.125 -12.054688 1.1875 -12.210938 1.3125 -12.328125 C 1.4375 -12.453125 1.585938 -12.515625 1.765625 -12.515625 C 1.953125 -12.515625 2.101562 -12.453125 2.21875 -12.328125 C 2.34375 -12.210938 2.40625 -12.054688 2.40625 -11.859375 C 2.40625 -11.660156 2.34375 -11.5 2.21875 -11.375 C 2.101562 -11.257812 1.953125 -11.203125 1.765625 -11.203125 Z M 2.140625 -9.15625 L 2.140625 0 L 1.390625 0 L 1.390625 -9.15625 Z M 2.140625 -9.15625 "/></g></g><g style="fill:#373643;fill-opacity:1;"><g transform="translate(101.860532, 231.456946)"><path style="stroke:none" d="M 2.140625 -12.484375 L 2.140625 0 L 1.390625 0 L 1.390625 -12.484375 Z M 2.140625 -12.484375 "/></g></g><g style="fill:#373643;fill-opacity:1;"><g transform="translate(104.763372, 231.456946)"><path style="stroke:none" d="M 2.140625 -12.484375 L 2.140625 0 L 1.390625 0 L 1.390625 -12.484375 Z M 2.140625 -12.484375 "/></g></g><g style="fill:#373643;fill-opacity:1;"><g transform="translate(107.666212, 231.456946)"><path style="stroke:none" d="M 4.4375 0.140625 C 3.414062 0.140625 2.582031 -0.0820312 1.9375 -0.53125 C 1.289062 -0.988281 0.925781 -1.632812 0.84375 -2.46875 L 1.625 -2.46875 C 1.675781 -1.863281 1.945312 -1.382812 2.4375 -1.03125 C 2.925781 -0.6875 3.59375 -0.515625 4.4375 -0.515625 C 5.132812 -0.515625 5.6875 -0.691406 6.09375 -1.046875 C 6.507812 -1.410156 6.71875 -1.847656 6.71875 -2.359375 C 6.71875 -2.722656 6.609375 -3.019531 6.390625 -3.25 C 6.171875 -3.476562 5.894531 -3.65625 5.5625 -3.78125 C 5.238281 -3.90625 4.796875 -4.039062 4.234375 -4.1875 C 3.554688 -4.363281 3.007812 -4.539062 2.59375 -4.71875 C 2.175781 -4.894531 1.820312 -5.15625 1.53125 -5.5 C 1.238281 -5.851562 1.09375 -6.320312 1.09375 -6.90625 C 1.09375 -7.332031 1.222656 -7.726562 1.484375 -8.09375 C 1.742188 -8.457031 2.101562 -8.742188 2.5625 -8.953125 C 3.019531 -9.171875 3.546875 -9.28125 4.140625 -9.28125 C 5.085938 -9.28125 5.859375 -9.039062 6.453125 -8.5625 C 7.046875 -8.082031 7.363281 -7.421875 7.40625 -6.578125 L 6.65625 -6.578125 C 6.613281 -7.191406 6.375 -7.6875 5.9375 -8.0625 C 5.5 -8.445312 4.894531 -8.640625 4.125 -8.640625 C 3.46875 -8.640625 2.925781 -8.46875 2.5 -8.125 C 2.070312 -7.789062 1.859375 -7.382812 1.859375 -6.90625 C 1.859375 -6.476562 1.976562 -6.128906 2.21875 -5.859375 C 2.457031 -5.597656 2.753906 -5.394531 3.109375 -5.25 C 3.460938 -5.113281 3.929688 -4.96875 4.515625 -4.8125 C 5.160156 -4.644531 5.675781 -4.476562 6.0625 -4.3125 C 6.457031 -4.144531 6.785156 -3.90625 7.046875 -3.59375 C 7.316406 -3.289062 7.453125 -2.878906 7.453125 -2.359375 C 7.453125 -1.890625 7.320312 -1.460938 7.0625 -1.078125 C 6.8125 -0.691406 6.453125 -0.390625 5.984375 -0.171875 C 5.523438 0.0351562 5.007812 0.140625 4.4375 0.140625 Z M 4.4375 0.140625 "/></g></g><g style="fill:#373643;fill-opacity:1;"><g transform="translate(115.413025, 231.456946)"><path style="stroke:none" d=""/></g></g><g style="fill:#373643;fill-opacity:1;"><g transform="translate(119.53108, 231.456946)"><path style="stroke:none" d="M 4.703125 -11.84375 C 6.710938 -11.84375 8.257812 -11.316406 9.34375 -10.265625 C 10.425781 -9.222656 10.96875 -7.769531 10.96875 -5.90625 C 10.96875 -4.039062 10.425781 -2.585938 9.34375 -1.546875 C 8.257812 -0.515625 6.710938 0 4.703125 0 L 1.390625 0 L 1.390625 -11.84375 Z M 4.703125 -0.640625 C 6.492188 -0.640625 7.851562 -1.101562 8.78125 -2.03125 C 9.71875 -2.957031 10.1875 -4.25 10.1875 -5.90625 C 10.1875 -7.570312 9.71875 -8.867188 8.78125 -9.796875 C 7.851562 -10.734375 6.492188 -11.203125 4.703125 -11.203125 L 2.140625 -11.203125 L 2.140625 -0.640625 Z M 4.703125 -0.640625 "/></g></g><g style="fill:#373643;fill-opacity:1;"><g transform="translate(130.771621, 231.456946)"><path style="stroke:none" d="M 9.640625 -5.203125 C 9.640625 -4.796875 9.628906 -4.488281 9.609375 -4.28125 L 1.6875 -4.28125 C 1.707031 -3.457031 1.882812 -2.765625 2.21875 -2.203125 C 2.5625 -1.640625 3.007812 -1.21875 3.5625 -0.9375 C 4.113281 -0.65625 4.710938 -0.515625 5.359375 -0.515625 C 6.265625 -0.515625 7.019531 -0.738281 7.625 -1.1875 C 8.226562 -1.632812 8.613281 -2.238281 8.78125 -3 L 9.5625 -3 C 9.382812 -2.070312 8.925781 -1.316406 8.1875 -0.734375 C 7.445312 -0.148438 6.503906 0.140625 5.359375 0.140625 C 4.503906 0.140625 3.738281 -0.0507812 3.0625 -0.4375 C 2.394531 -0.820312 1.867188 -1.367188 1.484375 -2.078125 C 1.097656 -2.796875 0.90625 -3.632812 0.90625 -4.59375 C 0.90625 -5.550781 1.09375 -6.382812 1.46875 -7.09375 C 1.851562 -7.800781 2.378906 -8.34375 3.046875 -8.71875 C 3.722656 -9.09375 4.492188 -9.28125 5.359375 -9.28125 C 6.242188 -9.28125 7.007812 -9.09375 7.65625 -8.71875 C 8.300781 -8.34375 8.789062 -7.84375 9.125 -7.21875 C 9.46875 -6.59375 9.640625 -5.921875 9.640625 -5.203125 Z M 8.875 -4.90625 C 8.90625 -5.71875 8.757812 -6.40625 8.4375 -6.96875 C 8.125 -7.53125 7.691406 -7.945312 7.140625 -8.21875 C 6.585938 -8.5 5.988281 -8.640625 5.34375 -8.640625 C 4.707031 -8.640625 4.113281 -8.5 3.5625 -8.21875 C 3.019531 -7.945312 2.578125 -7.53125 2.234375 -6.96875 C 1.890625 -6.40625 1.707031 -5.71875 1.6875 -4.90625 Z M 8.875 -4.90625 "/></g></g><g style="fill:#373643;fill-opacity:1;"><g transform="translate(140.678808, 231.456946)"><path style="stroke:none" d="M 4.484375 -0.828125 L 7.859375 -9.15625 L 8.671875 -9.15625 L 4.875 0 L 4.078125 0 L 0.28125 -9.15625 L 1.109375 -9.15625 Z M 4.484375 -0.828125 "/></g></g><g style="fill:#373643;fill-opacity:1;"><g transform="translate(148.999462, 231.456946)"><path style="stroke:none" d="M 9.640625 -5.203125 C 9.640625 -4.796875 9.628906 -4.488281 9.609375 -4.28125 L 1.6875 -4.28125 C 1.707031 -3.457031 1.882812 -2.765625 2.21875 -2.203125 C 2.5625 -1.640625 3.007812 -1.21875 3.5625 -0.9375 C 4.113281 -0.65625 4.710938 -0.515625 5.359375 -0.515625 C 6.265625 -0.515625 7.019531 -0.738281 7.625 -1.1875 C 8.226562 -1.632812 8.613281 -2.238281 8.78125 -3 L 9.5625 -3 C 9.382812 -2.070312 8.925781 -1.316406 8.1875 -0.734375 C 7.445312 -0.148438 6.503906 0.140625 5.359375 0.140625 C 4.503906 0.140625 3.738281 -0.0507812 3.0625 -0.4375 C 2.394531 -0.820312 1.867188 -1.367188 1.484375 -2.078125 C 1.097656 -2.796875 0.90625 -3.632812 0.90625 -4.59375 C 0.90625 -5.550781 1.09375 -6.382812 1.46875 -7.09375 C 1.851562 -7.800781 2.378906 -8.34375 3.046875 -8.71875 C 3.722656 -9.09375 4.492188 -9.28125 5.359375 -9.28125 C 6.242188 -9.28125 7.007812 -9.09375 7.65625 -8.71875 C 8.300781 -8.34375 8.789062 -7.84375 9.125 -7.21875 C 9.46875 -6.59375 9.640625 -5.921875 9.640625 -5.203125 Z M 8.875 -4.90625 C 8.90625 -5.71875 8.757812 -6.40625 8.4375 -6.96875 C 8.125 -7.53125 7.691406 -7.945312 7.140625 -8.21875 C 6.585938 -8.5 5.988281 -8.640625 5.34375 -8.640625 C 4.707031 -8.640625 4.113281 -8.5 3.5625 -8.21875 C 3.019531 -7.945312 2.578125 -7.53125 2.234375 -6.96875 C 1.890625 -6.40625 1.707031 -5.71875 1.6875 -4.90625 Z M 8.875 -4.90625 "/></g></g><g style="fill:#373643;fill-opacity:1;"><g transform="translate(158.906649, 231.456946)"><path style="stroke:none" d="M 2.140625 -12.484375 L 2.140625 0 L 1.390625 0 L 1.390625 -12.484375 Z M 2.140625 -12.484375 "/></g></g><g style="fill:#373643;fill-opacity:1;"><g transform="translate(161.809489, 231.456946)"><path style="stroke:none" d="M 5.421875 0.140625 C 4.566406 0.140625 3.796875 -0.0507812 3.109375 -0.4375 C 2.421875 -0.820312 1.878906 -1.367188 1.484375 -2.078125 C 1.097656 -2.796875 0.90625 -3.632812 0.90625 -4.59375 C 0.90625 -5.53125 1.101562 -6.359375 1.5 -7.078125 C 1.894531 -7.796875 2.4375 -8.34375 3.125 -8.71875 C 3.820312 -9.09375 4.597656 -9.28125 5.453125 -9.28125 C 6.304688 -9.28125 7.078125 -9.09375 7.765625 -8.71875 C 8.453125 -8.34375 8.988281 -7.800781 9.375 -7.09375 C 9.757812 -6.382812 9.953125 -5.550781 9.953125 -4.59375 C 9.953125 -3.632812 9.753906 -2.796875 9.359375 -2.078125 C 8.972656 -1.367188 8.429688 -0.820312 7.734375 -0.4375 C 7.046875 -0.0507812 6.273438 0.140625 5.421875 0.140625 Z M 5.421875 -0.546875 C 6.078125 -0.546875 6.695312 -0.691406 7.28125 -0.984375 C 7.863281 -1.285156 8.328125 -1.738281 8.671875 -2.34375 C 9.023438 -2.945312 9.203125 -3.695312 9.203125 -4.59375 C 9.203125 -5.46875 9.023438 -6.207031 8.671875 -6.8125 C 8.328125 -7.425781 7.863281 -7.878906 7.28125 -8.171875 C 6.707031 -8.472656 6.09375 -8.625 5.4375 -8.625 C 4.769531 -8.625 4.148438 -8.472656 3.578125 -8.171875 C 3.015625 -7.878906 2.554688 -7.425781 2.203125 -6.8125 C 1.859375 -6.207031 1.6875 -5.46875 1.6875 -4.59375 C 1.6875 -3.695312 1.859375 -2.945312 2.203125 -2.34375 C 2.546875 -1.738281 3 -1.285156 3.5625 -0.984375 C 4.132812 -0.691406 4.753906 -0.546875 5.421875 -0.546875 Z M 5.421875 -0.546875 "/></g></g><g style="fill:#373643;fill-opacity:1;"><g transform="translate(172.054227, 231.456946)"><path style="stroke:none" d="M 2.140625 -6.75 C 2.398438 -7.488281 2.867188 -8.09375 3.546875 -8.5625 C 4.234375 -9.039062 5.0625 -9.28125 6.03125 -9.28125 C 6.882812 -9.28125 7.644531 -9.085938 8.3125 -8.703125 C 8.976562 -8.328125 9.5 -7.78125 9.875 -7.0625 C 10.257812 -6.351562 10.453125 -5.53125 10.453125 -4.59375 C 10.453125 -3.644531 10.257812 -2.8125 9.875 -2.09375 C 9.5 -1.382812 8.976562 -0.832031 8.3125 -0.4375 C 7.644531 -0.0507812 6.882812 0.140625 6.03125 0.140625 C 5.070312 0.140625 4.25 -0.0976562 3.5625 -0.578125 C 2.882812 -1.054688 2.410156 -1.660156 2.140625 -2.390625 L 2.140625 4.3125 L 1.390625 4.3125 L 1.390625 -9.15625 L 2.140625 -9.15625 Z M 9.671875 -4.59375 C 9.671875 -5.425781 9.507812 -6.144531 9.1875 -6.75 C 8.875 -7.351562 8.429688 -7.816406 7.859375 -8.140625 C 7.296875 -8.460938 6.644531 -8.625 5.90625 -8.625 C 5.195312 -8.625 4.554688 -8.457031 3.984375 -8.125 C 3.410156 -7.789062 2.957031 -7.316406 2.625 -6.703125 C 2.300781 -6.085938 2.140625 -5.382812 2.140625 -4.59375 C 2.140625 -3.78125 2.300781 -3.066406 2.625 -2.453125 C 2.957031 -1.835938 3.410156 -1.363281 3.984375 -1.03125 C 4.554688 -0.707031 5.195312 -0.546875 5.90625 -0.546875 C 6.644531 -0.546875 7.296875 -0.707031 7.859375 -1.03125 C 8.429688 -1.351562 8.875 -1.816406 9.1875 -2.421875 C 9.507812 -3.035156 9.671875 -3.757812 9.671875 -4.59375 Z M 9.671875 -4.59375 "/></g></g><g style="fill:#373643;fill-opacity:1;"><g transform="translate(182.771558, 231.456946)"><path style="stroke:none" d="M 12.21875 -9.34375 C 13.257812 -9.34375 14.113281 -9.007812 14.78125 -8.34375 C 15.445312 -7.675781 15.78125 -6.679688 15.78125 -5.359375 L 15.78125 0 L 15.03125 0 L 15.03125 -5.3125 C 15.03125 -6.40625 14.769531 -7.238281 14.25 -7.8125 C 13.726562 -8.394531 13.007812 -8.6875 12.09375 -8.6875 C 11.15625 -8.6875 10.394531 -8.359375 9.8125 -7.703125 C 9.238281 -7.054688 8.953125 -6.113281 8.953125 -4.875 L 8.953125 0 L 8.21875 0 L 8.21875 -5.3125 C 8.21875 -6.40625 7.957031 -7.238281 7.4375 -7.8125 C 6.914062 -8.394531 6.195312 -8.6875 5.28125 -8.6875 C 4.332031 -8.6875 3.570312 -8.359375 3 -7.703125 C 2.425781 -7.054688 2.140625 -6.113281 2.140625 -4.875 L 2.140625 0 L 1.390625 0 L 1.390625 -9.15625 L 2.140625 -9.15625 L 2.140625 -7.171875 C 2.398438 -7.890625 2.816406 -8.429688 3.390625 -8.796875 C 3.972656 -9.160156 4.644531 -9.34375 5.40625 -9.34375 C 6.238281 -9.34375 6.953125 -9.125 7.546875 -8.6875 C 8.148438 -8.257812 8.566406 -7.625 8.796875 -6.78125 C 9.003906 -7.625 9.414062 -8.257812 10.03125 -8.6875 C 10.65625 -9.125 11.382812 -9.34375 12.21875 -9.34375 Z M 12.21875 -9.34375 "/></g></g><g style="fill:#373643;fill-opacity:1;"><g transform="translate(199.227376, 231.456946)"><path style="stroke:none" d="M 9.640625 -5.203125 C 9.640625 -4.796875 9.628906 -4.488281 9.609375 -4.28125 L 1.6875 -4.28125 C 1.707031 -3.457031 1.882812 -2.765625 2.21875 -2.203125 C 2.5625 -1.640625 3.007812 -1.21875 3.5625 -0.9375 C 4.113281 -0.65625 4.710938 -0.515625 5.359375 -0.515625 C 6.265625 -0.515625 7.019531 -0.738281 7.625 -1.1875 C 8.226562 -1.632812 8.613281 -2.238281 8.78125 -3 L 9.5625 -3 C 9.382812 -2.070312 8.925781 -1.316406 8.1875 -0.734375 C 7.445312 -0.148438 6.503906 0.140625 5.359375 0.140625 C 4.503906 0.140625 3.738281 -0.0507812 3.0625 -0.4375 C 2.394531 -0.820312 1.867188 -1.367188 1.484375 -2.078125 C 1.097656 -2.796875 0.90625 -3.632812 0.90625 -4.59375 C 0.90625 -5.550781 1.09375 -6.382812 1.46875 -7.09375 C 1.851562 -7.800781 2.378906 -8.34375 3.046875 -8.71875 C 3.722656 -9.09375 4.492188 -9.28125 5.359375 -9.28125 C 6.242188 -9.28125 7.007812 -9.09375 7.65625 -8.71875 C 8.300781 -8.34375 8.789062 -7.84375 9.125 -7.21875 C 9.46875 -6.59375 9.640625 -5.921875 9.640625 -5.203125 Z M 8.875 -4.90625 C 8.90625 -5.71875 8.757812 -6.40625 8.4375 -6.96875 C 8.125 -7.53125 7.691406 -7.945312 7.140625 -8.21875 C 6.585938 -8.5 5.988281 -8.640625 5.34375 -8.640625 C 4.707031 -8.640625 4.113281 -8.5 3.5625 -8.21875 C 3.019531 -7.945312 2.578125 -7.53125 2.234375 -6.96875 C 1.890625 -6.40625 1.707031 -5.71875 1.6875 -4.90625 Z M 8.875 -4.90625 "/></g></g><g style="fill:#373643;fill-opacity:1;"><g transform="translate(209.134563, 231.456946)"><path style="stroke:none" d="M 5.515625 -9.34375 C 6.609375 -9.34375 7.5 -9.007812 8.1875 -8.34375 C 8.875 -7.675781 9.21875 -6.679688 9.21875 -5.359375 L 9.21875 0 L 8.46875 0 L 8.46875 -5.3125 C 8.46875 -6.40625 8.191406 -7.238281 7.640625 -7.8125 C 7.085938 -8.394531 6.34375 -8.6875 5.40625 -8.6875 C 4.414062 -8.6875 3.625 -8.367188 3.03125 -7.734375 C 2.4375 -7.109375 2.140625 -6.175781 2.140625 -4.9375 L 2.140625 0 L 1.390625 0 L 1.390625 -9.15625 L 2.140625 -9.15625 L 2.140625 -7.21875 C 2.398438 -7.90625 2.832031 -8.429688 3.4375 -8.796875 C 4.039062 -9.160156 4.734375 -9.34375 5.515625 -9.34375 Z M 5.515625 -9.34375 "/></g></g><g style="fill:#373643;fill-opacity:1;"><g transform="translate(219.007997, 231.456946)"><path style="stroke:none" d="M 2.515625 -8.5 L 2.515625 -2.453125 C 2.515625 -1.773438 2.632812 -1.304688 2.875 -1.046875 C 3.125 -0.796875 3.566406 -0.671875 4.203125 -0.671875 L 5.234375 -0.671875 L 5.234375 0 L 4.078125 0 C 3.285156 0 2.695312 -0.1875 2.3125 -0.5625 C 1.9375 -0.9375 1.75 -1.566406 1.75 -2.453125 L 1.75 -8.5 L 0.375 -8.5 L 0.375 -9.15625 L 1.75 -9.15625 L 1.75 -11.484375 L 2.515625 -11.484375 L 2.515625 -9.15625 L 5.234375 -9.15625 L 5.234375 -8.5 Z M 2.515625 -8.5 "/></g></g><g style="fill:#373643;fill-opacity:1;"><g transform="translate(224.223117, 231.456946)"><path style="stroke:none" d=""/></g></g><g style="fill:#373643;fill-opacity:1;"><g transform="translate(228.341172, 231.456946)"><path style="stroke:none" d="M 8.5625 -8.5 C 8.5625 -7.457031 8.234375 -6.644531 7.578125 -6.0625 C 6.921875 -5.488281 5.953125 -5.203125 4.671875 -5.203125 L 2.140625 -5.203125 L 2.140625 0 L 1.390625 0 L 1.390625 -11.84375 L 4.671875 -11.84375 C 5.972656 -11.84375 6.945312 -11.539062 7.59375 -10.9375 C 8.238281 -10.34375 8.5625 -9.53125 8.5625 -8.5 Z M 4.671875 -5.875 C 6.753906 -5.875 7.796875 -6.75 7.796875 -8.5 C 7.796875 -9.363281 7.546875 -10.023438 7.046875 -10.484375 C 6.554688 -10.941406 5.765625 -11.171875 4.671875 -11.171875 L 2.140625 -11.171875 L 2.140625 -5.875 Z M 4.671875 -5.875 "/></g></g><g style="fill:#373643;fill-opacity:1;"><g transform="translate(236.915005, 231.456946)"><path style="stroke:none" d="M 0.90625 -4.59375 C 0.90625 -5.53125 1.09375 -6.351562 1.46875 -7.0625 C 1.851562 -7.78125 2.378906 -8.328125 3.046875 -8.703125 C 3.710938 -9.085938 4.472656 -9.28125 5.328125 -9.28125 C 6.296875 -9.28125 7.117188 -9.039062 7.796875 -8.5625 C 8.472656 -8.09375 8.945312 -7.492188 9.21875 -6.765625 L 9.21875 -9.15625 L 9.96875 -9.15625 L 9.96875 0 L 9.21875 0 L 9.21875 -2.40625 C 8.945312 -1.664062 8.46875 -1.054688 7.78125 -0.578125 C 7.101562 -0.0976562 6.285156 0.140625 5.328125 0.140625 C 4.472656 0.140625 3.710938 -0.0507812 3.046875 -0.4375 C 2.378906 -0.832031 1.851562 -1.382812 1.46875 -2.09375 C 1.09375 -2.8125 0.90625 -3.644531 0.90625 -4.59375 Z M 9.21875 -4.59375 C 9.21875 -5.382812 9.050781 -6.085938 8.71875 -6.703125 C 8.382812 -7.316406 7.929688 -7.789062 7.359375 -8.125 C 6.785156 -8.457031 6.144531 -8.625 5.4375 -8.625 C 4.6875 -8.625 4.03125 -8.460938 3.46875 -8.140625 C 2.90625 -7.816406 2.46875 -7.351562 2.15625 -6.75 C 1.84375 -6.144531 1.6875 -5.425781 1.6875 -4.59375 C 1.6875 -3.757812 1.84375 -3.035156 2.15625 -2.421875 C 2.46875 -1.816406 2.910156 -1.351562 3.484375 -1.03125 C 4.054688 -0.707031 4.707031 -0.546875 5.4375 -0.546875 C 6.144531 -0.546875 6.785156 -0.707031 7.359375 -1.03125 C 7.941406 -1.363281 8.394531 -1.835938 8.71875 -2.453125 C 9.050781 -3.066406 9.21875 -3.78125 9.21875 -4.59375 Z M 9.21875 -4.59375 "/></g></g><g style="fill:#373643;fill-opacity:1;"><g transform="translate(247.632336, 231.456946)"><path style="stroke:none" d="M 6.140625 0 L 2.140625 -4.203125 L 2.140625 0 L 1.390625 0 L 1.390625 -12.484375 L 2.140625 -12.484375 L 2.140625 -5.015625 L 6.078125 -9.15625 L 7.140625 -9.15625 L 2.703125 -4.609375 L 7.1875 0 Z M 6.140625 0 "/></g></g><g style="fill:#373643;fill-opacity:1;"><g transform="translate(254.366469, 231.456946)"><path style="stroke:none" d="M 1.765625 -11.203125 C 1.585938 -11.203125 1.4375 -11.257812 1.3125 -11.375 C 1.1875 -11.5 1.125 -11.660156 1.125 -11.859375 C 1.125 -12.054688 1.1875 -12.210938 1.3125 -12.328125 C 1.4375 -12.453125 1.585938 -12.515625 1.765625 -12.515625 C 1.953125 -12.515625 2.101562 -12.453125 2.21875 -12.328125 C 2.34375 -12.210938 2.40625 -12.054688 2.40625 -11.859375 C 2.40625 -11.660156 2.34375 -11.5 2.21875 -11.375 C 2.101562 -11.257812 1.953125 -11.203125 1.765625 -11.203125 Z M 2.140625 -9.15625 L 2.140625 0 L 1.390625 0 L 1.390625 -9.15625 Z M 2.140625 -9.15625 "/></g></g><g style="fill:#373643;fill-opacity:1;"><g transform="translate(257.269309, 231.456946)"><path style="stroke:none" d="M 4.4375 0.140625 C 3.414062 0.140625 2.582031 -0.0820312 1.9375 -0.53125 C 1.289062 -0.988281 0.925781 -1.632812 0.84375 -2.46875 L 1.625 -2.46875 C 1.675781 -1.863281 1.945312 -1.382812 2.4375 -1.03125 C 2.925781 -0.6875 3.59375 -0.515625 4.4375 -0.515625 C 5.132812 -0.515625 5.6875 -0.691406 6.09375 -1.046875 C 6.507812 -1.410156 6.71875 -1.847656 6.71875 -2.359375 C 6.71875 -2.722656 6.609375 -3.019531 6.390625 -3.25 C 6.171875 -3.476562 5.894531 -3.65625 5.5625 -3.78125 C 5.238281 -3.90625 4.796875 -4.039062 4.234375 -4.1875 C 3.554688 -4.363281 3.007812 -4.539062 2.59375 -4.71875 C 2.175781 -4.894531 1.820312 -5.15625 1.53125 -5.5 C 1.238281 -5.851562 1.09375 -6.320312 1.09375 -6.90625 C 1.09375 -7.332031 1.222656 -7.726562 1.484375 -8.09375 C 1.742188 -8.457031 2.101562 -8.742188 2.5625 -8.953125 C 3.019531 -9.171875 3.546875 -9.28125 4.140625 -9.28125 C 5.085938 -9.28125 5.859375 -9.039062 6.453125 -8.5625 C 7.046875 -8.082031 7.363281 -7.421875 7.40625 -6.578125 L 6.65625 -6.578125 C 6.613281 -7.191406 6.375 -7.6875 5.9375 -8.0625 C 5.5 -8.445312 4.894531 -8.640625 4.125 -8.640625 C 3.46875 -8.640625 2.925781 -8.46875 2.5 -8.125 C 2.070312 -7.789062 1.859375 -7.382812 1.859375 -6.90625 C 1.859375 -6.476562 1.976562 -6.128906 2.21875 -5.859375 C 2.457031 -5.597656 2.753906 -5.394531 3.109375 -5.25 C 3.460938 -5.113281 3.929688 -4.96875 4.515625 -4.8125 C 5.160156 -4.644531 5.675781 -4.476562 6.0625 -4.3125 C 6.457031 -4.144531 6.785156 -3.90625 7.046875 -3.59375 C 7.316406 -3.289062 7.453125 -2.878906 7.453125 -2.359375 C 7.453125 -1.890625 7.320312 -1.460938 7.0625 -1.078125 C 6.8125 -0.691406 6.453125 -0.390625 5.984375 -0.171875 C 5.523438 0.0351562 5.007812 0.140625 4.4375 0.140625 Z M 4.4375 0.140625 "/></g></g><g style="fill:#373643;fill-opacity:1;"><g transform="translate(265.016121, 231.456946)"><path style="stroke:none" d="M 2.515625 -8.5 L 2.515625 -2.453125 C 2.515625 -1.773438 2.632812 -1.304688 2.875 -1.046875 C 3.125 -0.796875 3.566406 -0.671875 4.203125 -0.671875 L 5.234375 -0.671875 L 5.234375 0 L 4.078125 0 C 3.285156 0 2.695312 -0.1875 2.3125 -0.5625 C 1.9375 -0.9375 1.75 -1.566406 1.75 -2.453125 L 1.75 -8.5 L 0.375 -8.5 L 0.375 -9.15625 L 1.75 -9.15625 L 1.75 -11.484375 L 2.515625 -11.484375 L 2.515625 -9.15625 L 5.234375 -9.15625 L 5.234375 -8.5 Z M 2.515625 -8.5 "/></g></g><g style="fill:#373643;fill-opacity:1;"><g transform="translate(270.231241, 231.456946)"><path style="stroke:none" d="M 0.90625 -4.59375 C 0.90625 -5.53125 1.09375 -6.351562 1.46875 -7.0625 C 1.851562 -7.78125 2.378906 -8.328125 3.046875 -8.703125 C 3.710938 -9.085938 4.472656 -9.28125 5.328125 -9.28125 C 6.296875 -9.28125 7.117188 -9.039062 7.796875 -8.5625 C 8.472656 -8.09375 8.945312 -7.492188 9.21875 -6.765625 L 9.21875 -9.15625 L 9.96875 -9.15625 L 9.96875 0 L 9.21875 0 L 9.21875 -2.40625 C 8.945312 -1.664062 8.46875 -1.054688 7.78125 -0.578125 C 7.101562 -0.0976562 6.285156 0.140625 5.328125 0.140625 C 4.472656 0.140625 3.710938 -0.0507812 3.046875 -0.4375 C 2.378906 -0.832031 1.851562 -1.382812 1.46875 -2.09375 C 1.09375 -2.8125 0.90625 -3.644531 0.90625 -4.59375 Z M 9.21875 -4.59375 C 9.21875 -5.382812 9.050781 -6.085938 8.71875 -6.703125 C 8.382812 -7.316406 7.929688 -7.789062 7.359375 -8.125 C 6.785156 -8.457031 6.144531 -8.625 5.4375 -8.625 C 4.6875 -8.625 4.03125 -8.460938 3.46875 -8.140625 C 2.90625 -7.816406 2.46875 -7.351562 2.15625 -6.75 C 1.84375 -6.144531 1.6875 -5.425781 1.6875 -4.59375 C 1.6875 -3.757812 1.84375 -3.035156 2.15625 -2.421875 C 2.46875 -1.816406 2.910156 -1.351562 3.484375 -1.03125 C 4.054688 -0.707031 4.707031 -0.546875 5.4375 -0.546875 C 6.144531 -0.546875 6.785156 -0.707031 7.359375 -1.03125 C 7.941406 -1.363281 8.394531 -1.835938 8.71875 -2.453125 C 9.050781 -3.066406 9.21875 -3.78125 9.21875 -4.59375 Z M 9.21875 -4.59375 "/></g></g><g style="fill:#373643;fill-opacity:1;"><g transform="translate(280.948572, 231.456946)"><path style="stroke:none" d="M 5.515625 -9.34375 C 6.609375 -9.34375 7.5 -9.007812 8.1875 -8.34375 C 8.875 -7.675781 9.21875 -6.679688 9.21875 -5.359375 L 9.21875 0 L 8.46875 0 L 8.46875 -5.3125 C 8.46875 -6.40625 8.191406 -7.238281 7.640625 -7.8125 C 7.085938 -8.394531 6.34375 -8.6875 5.40625 -8.6875 C 4.414062 -8.6875 3.625 -8.367188 3.03125 -7.734375 C 2.4375 -7.109375 2.140625 -6.175781 2.140625 -4.9375 L 2.140625 0 L 1.390625 0 L 1.390625 -9.15625 L 2.140625 -9.15625 L 2.140625 -7.21875 C 2.398438 -7.90625 2.832031 -8.429688 3.4375 -8.796875 C 4.039062 -9.160156 4.734375 -9.34375 5.515625 -9.34375 Z M 5.515625 -9.34375 "/></g></g></g></svg>