<svg xmlns="http://www.w3.org/2000/svg" xmlns:xlink="http://www.w3.org/1999/xlink" width="500" zoomAndPan="magnify" viewBox="0 0 375 374.999991" height="500" preserveAspectRatio="xMidYMid meet" version="1.2"><defs><clipPath id="6b81c1fb2f"><path d="M 306 162 L 327 162 L 327 184 L 306 184 Z M 306 162 "/></clipPath><clipPath id="67b30bb908"><path d="M 301.8125 165.335938 L 316.683594 151.589844 L 337.046875 173.621094 L 322.175781 187.367188 Z M 301.8125 165.335938 "/></clipPath><clipPath id="6947f56d84"><path d="M 301.8125 165.335938 L 316.683594 151.589844 L 337.046875 173.621094 L 322.175781 187.367188 Z M 301.8125 165.335938 "/></clipPath><clipPath id="ee924c473f"><path d="M 316 152 L 338 152 L 338 174 L 316 174 Z M 316 152 "/></clipPath><clipPath id="108ad74f9b"><path d="M 312.484375 155.472656 L 327.355469 141.726562 L 347.71875 163.757812 L 332.847656 177.503906 Z M 312.484375 155.472656 "/></clipPath><clipPath id="0ec482f6ca"><path d="M 312.484375 155.472656 L 327.355469 141.726562 L 347.71875 163.757812 L 332.847656 177.503906 Z M 312.484375 155.472656 "/></clipPath></defs><g id="ed1703b8e4"><g clip-rule="nonzero" clip-path="url(#6b81c1fb2f)"><g clip-rule="nonzero" clip-path="url(#67b30bb908)"><g clip-rule="nonzero" clip-path="url(#6947f56d84)"><path style=" stroke:none;fill-rule:nonzero;fill:#1f48ff;fill-opacity:1;" d="M 326.871094 162.890625 L 308.953125 162.09375 C 305.492188 161.941406 304.910156 168.683594 309.007812 168.792969 L 320.160156 169.097656 L 319.308594 180.316406 C 319.046875 183.730469 325.710938 184.09375 325.902344 180.621094 Z M 326.871094 162.890625 "/></g></g></g><g clip-rule="nonzero" clip-path="url(#ee924c473f)"><g clip-rule="nonzero" clip-path="url(#108ad74f9b)"><g clip-rule="nonzero" clip-path="url(#0ec482f6ca)"><path style=" stroke:none;fill-rule:nonzero;fill:#1f48ff;fill-opacity:1;" d="M 337.542969 153.027344 L 319.625 152.230469 C 316.164062 152.078125 315.578125 158.820312 319.679688 158.929688 L 330.828125 159.234375 L 329.976562 170.453125 C 329.71875 173.871094 336.382812 174.230469 336.574219 170.757812 Z M 337.542969 153.027344 "/></g></g></g><g style="fill:#373643;fill-opacity:1;"><g transform="translate(40.923518, 199.719304)"><path style="stroke:none" d="M 26.765625 -32.90625 C 27.753906 -32.90625 28.507812 -32.628906 29.03125 -32.078125 C 29.550781 -31.523438 29.8125 -30.90625 29.8125 -30.21875 C 29.8125 -29.5625 29.550781 -28.957031 29.03125 -28.40625 C 28.507812 -27.851562 27.753906 -27.578125 26.765625 -27.578125 L 17.15625 -27.578125 L 17.203125 -2.734375 C 17.203125 -1.804688 16.863281 -1.117188 16.1875 -0.671875 C 15.519531 -0.222656 14.84375 0 14.15625 0 C 13.425781 0 12.742188 -0.222656 12.109375 -0.671875 C 11.472656 -1.117188 11.15625 -1.804688 11.15625 -2.734375 L 11.15625 -27.578125 L 1.59375 -27.578125 C 0.601562 -27.578125 -0.125 -27.851562 -0.59375 -28.40625 C -1.0625 -28.957031 -1.296875 -29.5625 -1.296875 -30.21875 C -1.296875 -30.90625 -1.0625 -31.523438 -0.59375 -32.078125 C -0.125 -32.628906 0.601562 -32.90625 1.59375 -32.90625 Z M 26.765625 -32.90625 "/></g></g><g style="fill:#373643;fill-opacity:1;"><g transform="translate(69.385865, 199.719304)"><path style="stroke:none" d="M 14.78125 -4.59375 C 15.769531 -4.59375 16.75 -4.726562 17.71875 -5 C 18.6875 -5.28125 19.582031 -5.75 20.40625 -6.40625 C 21.195312 -7.125 21.96875 -7.457031 22.71875 -7.40625 C 23.476562 -7.351562 24.109375 -7.078125 24.609375 -6.578125 C 25.109375 -6.085938 25.359375 -5.46875 25.359375 -4.71875 C 25.359375 -3.976562 25 -3.265625 24.28125 -2.578125 C 23.070312 -1.410156 21.640625 -0.59375 19.984375 -0.125 C 18.335938 0.332031 16.648438 0.546875 14.921875 0.515625 C 12.242188 0.515625 9.878906 -0.0351562 7.828125 -1.140625 C 5.773438 -2.242188 4.171875 -3.773438 3.015625 -5.734375 C 1.867188 -7.691406 1.296875 -9.960938 1.296875 -12.546875 C 1.296875 -15.367188 1.84375 -17.847656 2.9375 -19.984375 C 4.039062 -22.117188 5.597656 -23.789062 7.609375 -25 C 9.628906 -26.207031 12.019531 -26.8125 14.78125 -26.8125 C 17.53125 -26.8125 19.867188 -26.25 21.796875 -25.125 C 23.722656 -24.007812 25.191406 -22.441406 26.203125 -20.421875 C 27.222656 -18.410156 27.734375 -16.0625 27.734375 -13.375 C 27.734375 -12.519531 27.5625 -11.789062 27.21875 -11.1875 C 26.875 -10.582031 25.960938 -10.28125 24.484375 -10.28125 L 7.28125 -10.28125 C 7.757812 -8.59375 8.671875 -7.222656 10.015625 -6.171875 C 11.359375 -5.117188 12.945312 -4.59375 14.78125 -4.59375 Z M 14.828125 -21.703125 C 12.828125 -21.703125 11.15625 -21.070312 9.8125 -19.8125 C 8.46875 -18.550781 7.609375 -16.90625 7.234375 -14.875 L 22.265625 -14.875 C 22.085938 -16.90625 21.414062 -18.550781 20.25 -19.8125 C 19.082031 -21.070312 17.273438 -21.703125 14.828125 -21.703125 Z M 14.828125 -21.703125 "/></g></g><g style="fill:#373643;fill-opacity:1;"><g transform="translate(99.397902, 199.719304)"><path style="stroke:none" d="M 20.40625 -19.21875 C 19.613281 -20.144531 18.679688 -20.796875 17.609375 -21.171875 C 16.546875 -21.554688 15.5 -21.75 14.46875 -21.75 C 12.1875 -21.75 10.359375 -20.960938 8.984375 -19.390625 C 7.609375 -17.828125 6.921875 -15.71875 6.921875 -13.0625 C 6.921875 -10.519531 7.632812 -8.472656 9.0625 -6.921875 C 10.488281 -5.367188 12.359375 -4.59375 14.671875 -4.59375 C 15.703125 -4.59375 16.75 -4.773438 17.8125 -5.140625 C 18.882812 -5.503906 19.832031 -6.097656 20.65625 -6.921875 C 21.414062 -7.679688 22.164062 -8.078125 22.90625 -8.109375 C 23.644531 -8.140625 24.253906 -7.929688 24.734375 -7.484375 C 25.222656 -7.035156 25.492188 -6.457031 25.546875 -5.75 C 25.597656 -5.050781 25.296875 -4.335938 24.640625 -3.609375 C 23.296875 -2.128906 21.753906 -1.070312 20.015625 -0.4375 C 18.273438 0.195312 16.476562 0.515625 14.625 0.515625 C 11.894531 0.515625 9.503906 -0.0507812 7.453125 -1.1875 C 5.410156 -2.320312 3.820312 -3.90625 2.6875 -5.9375 C 1.550781 -7.96875 0.984375 -10.328125 0.984375 -13.015625 C 0.984375 -15.804688 1.539062 -18.234375 2.65625 -20.296875 C 3.78125 -22.367188 5.359375 -23.972656 7.390625 -25.109375 C 9.421875 -26.242188 11.78125 -26.8125 14.46875 -26.8125 C 16.363281 -26.8125 18.128906 -26.515625 19.765625 -25.921875 C 21.398438 -25.335938 22.90625 -24.238281 24.28125 -22.625 C 24.894531 -21.90625 25.160156 -21.195312 25.078125 -20.5 C 24.992188 -19.8125 24.691406 -19.242188 24.171875 -18.796875 C 23.660156 -18.347656 23.050781 -18.132812 22.34375 -18.15625 C 21.632812 -18.175781 20.988281 -18.53125 20.40625 -19.21875 Z M 20.40625 -19.21875 "/></g></g><g style="fill:#373643;fill-opacity:1;"><g transform="translate(125.225785, 199.719304)"><path style="stroke:none" d="M 17.09375 -26.8125 C 19.507812 -26.8125 21.5625 -26.285156 23.25 -25.234375 C 24.9375 -24.179688 26.226562 -22.722656 27.125 -20.859375 C 28.019531 -19.003906 28.46875 -16.835938 28.46875 -14.359375 L 28.46875 -2.6875 C 28.46875 -1.894531 28.21875 -1.25 27.71875 -0.75 C 27.21875 -0.25 26.484375 0 25.515625 0 C 24.660156 0 23.957031 -0.25 23.40625 -0.75 C 22.851562 -1.25 22.578125 -1.894531 22.578125 -2.6875 L 22.578125 -14.46875 C 22.578125 -16.601562 22.066406 -18.332031 21.046875 -19.65625 C 20.035156 -20.976562 18.441406 -21.640625 16.265625 -21.640625 C 15.617188 -21.640625 14.851562 -21.492188 13.96875 -21.203125 C 13.09375 -20.910156 12.238281 -20.4375 11.40625 -19.78125 C 10.582031 -19.125 9.894531 -18.28125 9.34375 -17.25 C 8.789062 -16.21875 8.515625 -14.945312 8.515625 -13.4375 L 8.515625 -2.6875 C 8.515625 -1.894531 8.265625 -1.25 7.765625 -0.75 C 7.273438 -0.25 6.5625 0 5.625 0 C 4.695312 0 3.957031 -0.25 3.40625 -0.75 C 2.851562 -1.25 2.578125 -1.894531 2.578125 -2.6875 L 2.578125 -30.9375 C 2.578125 -31.726562 2.894531 -32.335938 3.53125 -32.765625 C 4.175781 -33.203125 4.859375 -33.421875 5.578125 -33.421875 C 6.335938 -33.421875 7.015625 -33.203125 7.609375 -32.765625 C 8.210938 -32.335938 8.515625 -31.726562 8.515625 -30.9375 L 8.515625 -23.921875 C 9.929688 -25.117188 11.394531 -25.898438 12.90625 -26.265625 C 14.425781 -26.628906 15.820312 -26.8125 17.09375 -26.8125 Z M 17.09375 -26.8125 "/></g></g><g style="fill:#373643;fill-opacity:1;"><g transform="translate(156.580889, 199.719304)"><path style="stroke:none" d=""/></g></g><g style="fill:#373643;fill-opacity:1;"><g transform="translate(168.719854, 199.719304)"><path style="stroke:none" d="M 17.609375 -32.90625 C 18.847656 -32.90625 20.195312 -32.789062 21.65625 -32.5625 C 23.125 -32.34375 24.515625 -31.921875 25.828125 -31.296875 C 27.140625 -30.679688 28.21875 -29.769531 29.0625 -28.5625 C 29.90625 -27.363281 30.328125 -25.796875 30.328125 -23.859375 C 30.328125 -22.765625 30.054688 -21.628906 29.515625 -20.453125 C 28.984375 -19.285156 28.238281 -18.425781 27.28125 -17.875 C 29.0625 -17.144531 30.390625 -16.097656 31.265625 -14.734375 C 32.148438 -13.378906 32.59375 -11.789062 32.59375 -9.96875 C 32.59375 -7.96875 32.1875 -6.320312 31.375 -5.03125 C 30.570312 -3.738281 29.5 -2.722656 28.15625 -1.984375 C 26.8125 -1.242188 25.320312 -0.726562 23.6875 -0.4375 C 22.050781 -0.144531 20.390625 0 18.703125 0 L 6.09375 0 C 5.269531 0 4.554688 -0.265625 3.953125 -0.796875 C 3.347656 -1.328125 3.046875 -1.972656 3.046875 -2.734375 L 3.046875 -30.171875 C 3.046875 -30.960938 3.347656 -31.613281 3.953125 -32.125 C 4.554688 -32.644531 5.269531 -32.90625 6.09375 -32.90625 Z M 17.609375 -27.796875 L 9.046875 -27.796875 L 9.046875 -19.78125 L 17.765625 -19.78125 C 19.523438 -19.78125 21.066406 -20.097656 22.390625 -20.734375 C 23.710938 -21.378906 24.375 -22.421875 24.375 -23.859375 C 24.375 -24.992188 23.988281 -25.835938 23.21875 -26.390625 C 22.445312 -26.941406 21.535156 -27.3125 20.484375 -27.5 C 19.429688 -27.695312 18.472656 -27.796875 17.609375 -27.796875 Z M 20.203125 -14.671875 L 9.046875 -14.671875 L 9.046875 -5.109375 L 18.703125 -5.109375 C 19.941406 -5.109375 21.160156 -5.226562 22.359375 -5.46875 C 23.566406 -5.71875 24.554688 -6.191406 25.328125 -6.890625 C 26.109375 -7.597656 26.5 -8.625 26.5 -9.96875 C 26.5 -11.550781 25.882812 -12.726562 24.65625 -13.5 C 23.4375 -14.28125 21.953125 -14.671875 20.203125 -14.671875 Z M 20.203125 -14.671875 "/></g></g><g style="fill:#373643;fill-opacity:1;"><g transform="translate(202.244517, 199.719304)"><path style="stroke:none" d="M 13.953125 -26.296875 C 14.878906 -26.296875 15.617188 -26.097656 16.171875 -25.703125 C 16.722656 -25.304688 17 -24.660156 17 -23.765625 C 17 -22.929688 16.722656 -22.273438 16.171875 -21.796875 C 15.617188 -21.316406 14.878906 -21.078125 13.953125 -21.078125 C 11.773438 -21.078125 10.25 -20.300781 9.375 -18.75 C 8.5 -17.195312 8.0625 -15.097656 8.0625 -12.453125 L 8.0625 -2.640625 C 8.0625 -1.878906 7.785156 -1.25 7.234375 -0.75 C 6.679688 -0.25 6.007812 0 5.21875 0 C 4.320312 0 3.597656 -0.25 3.046875 -0.75 C 2.492188 -1.25 2.21875 -1.878906 2.21875 -2.640625 L 2.21875 -23.65625 C 2.21875 -24.476562 2.535156 -25.125 3.171875 -25.59375 C 3.804688 -26.0625 4.488281 -26.296875 5.21875 -26.296875 C 5.9375 -26.296875 6.585938 -26.070312 7.171875 -25.625 C 7.765625 -25.175781 8.0625 -24.519531 8.0625 -23.65625 L 8.0625 -23.34375 C 8.8125 -24.34375 9.6875 -25.082031 10.6875 -25.5625 C 11.6875 -26.050781 12.773438 -26.296875 13.953125 -26.296875 Z M 13.953125 -26.296875 "/></g></g><g style="fill:#373643;fill-opacity:1;"><g transform="translate(217.689485, 199.719304)"><path style="stroke:none" d="M 7.75 -30.171875 C 7.75 -29.304688 7.429688 -28.65625 6.796875 -28.21875 C 6.160156 -27.789062 5.476562 -27.578125 4.75 -27.578125 C 3.988281 -27.578125 3.296875 -27.789062 2.671875 -28.21875 C 2.054688 -28.65625 1.75 -29.304688 1.75 -30.171875 L 1.75 -30.84375 C 1.75 -31.738281 2.054688 -32.390625 2.671875 -32.796875 C 3.296875 -33.210938 3.988281 -33.421875 4.75 -33.421875 C 5.476562 -33.421875 6.160156 -33.210938 6.796875 -32.796875 C 7.429688 -32.390625 7.75 -31.738281 7.75 -30.84375 Z M 1.8125 -23.765625 C 1.8125 -24.585938 2.128906 -25.210938 2.765625 -25.640625 C 3.398438 -26.078125 4.0625 -26.296875 4.75 -26.296875 C 5.476562 -26.296875 6.148438 -26.078125 6.765625 -25.640625 C 7.390625 -25.210938 7.703125 -24.601562 7.703125 -23.8125 L 7.703125 -2.53125 C 7.703125 -1.664062 7.390625 -1.023438 6.765625 -0.609375 C 6.148438 -0.203125 5.476562 0 4.75 0 C 4.0625 0 3.398438 -0.203125 2.765625 -0.609375 C 2.128906 -1.023438 1.8125 -1.664062 1.8125 -2.53125 Z M 1.8125 -23.765625 "/></g></g><g style="fill:#373643;fill-opacity:1;"><g transform="translate(226.160848, 199.719304)"><path style="stroke:none" d="M 24.078125 -33.421875 C 24.796875 -33.421875 25.472656 -33.210938 26.109375 -32.796875 C 26.742188 -32.390625 27.0625 -31.738281 27.0625 -30.84375 L 27.0625 -2.640625 C 27.0625 -0.878906 26.066406 0 24.078125 0 C 22.285156 0 21.351562 -0.828125 21.28125 -2.484375 C 20.175781 -1.515625 18.9375 -0.78125 17.5625 -0.28125 C 16.1875 0.21875 14.878906 0.46875 13.640625 0.46875 C 11.054688 0.46875 8.820312 -0.113281 6.9375 -1.28125 C 5.0625 -2.457031 3.625 -4.09375 2.625 -6.1875 C 1.632812 -8.289062 1.140625 -10.707031 1.140625 -13.4375 C 1.140625 -16.050781 1.671875 -18.351562 2.734375 -20.34375 C 3.804688 -22.34375 5.296875 -23.921875 7.203125 -25.078125 C 9.117188 -26.234375 11.332031 -26.8125 13.84375 -26.8125 C 14.976562 -26.8125 16.195312 -26.585938 17.5 -26.140625 C 18.8125 -25.691406 20.035156 -25.019531 21.171875 -24.125 L 21.171875 -30.84375 C 21.171875 -31.738281 21.472656 -32.390625 22.078125 -32.796875 C 22.679688 -33.210938 23.347656 -33.421875 24.078125 -33.421875 Z M 13.796875 -4.75 C 15.515625 -4.75 17.070312 -5.132812 18.46875 -5.90625 C 19.863281 -6.6875 20.800781 -7.816406 21.28125 -9.296875 L 21.234375 -17.25 C 20.648438 -18.664062 19.691406 -19.742188 18.359375 -20.484375 C 17.035156 -21.222656 15.664062 -21.59375 14.25 -21.59375 C 12.082031 -21.59375 10.335938 -20.804688 9.015625 -19.234375 C 7.691406 -17.671875 7.03125 -15.71875 7.03125 -13.375 C 7.03125 -10.863281 7.648438 -8.796875 8.890625 -7.171875 C 10.128906 -5.554688 11.765625 -4.75 13.796875 -4.75 Z M 13.796875 -4.75 "/></g></g><g style="fill:#373643;fill-opacity:1;"><g transform="translate(256.06959, 199.719304)"><path style="stroke:none" d="M 24.125 -26.296875 C 25.019531 -26.296875 25.742188 -26 26.296875 -25.40625 C 26.847656 -24.820312 27.125 -24.132812 27.125 -23.34375 L 27.125 -1.59375 C 27.125 0.914062 26.535156 3.03125 25.359375 4.75 C 24.191406 6.46875 22.625 7.757812 20.65625 8.625 C 18.695312 9.488281 16.515625 9.921875 14.109375 9.921875 C 12.109375 9.921875 10.296875 9.660156 8.671875 9.140625 C 7.054688 8.628906 5.539062 7.71875 4.125 6.40625 C 3.4375 5.71875 3.109375 5.007812 3.140625 4.28125 C 3.179688 3.5625 3.457031 2.941406 3.96875 2.421875 C 4.488281 1.910156 5.117188 1.617188 5.859375 1.546875 C 6.597656 1.484375 7.3125 1.757812 8 2.375 C 9.070312 3.300781 10.0625 3.898438 10.96875 4.171875 C 11.882812 4.453125 12.929688 4.59375 14.109375 4.59375 C 15.347656 4.59375 16.515625 4.378906 17.609375 3.953125 C 18.710938 3.523438 19.609375 2.84375 20.296875 1.90625 C 20.984375 0.976562 21.328125 -0.1875 21.328125 -1.59375 L 21.328125 -2.0625 C 20.160156 -1.207031 18.882812 -0.5625 17.5 -0.125 C 16.125 0.300781 14.835938 0.515625 13.640625 0.515625 C 11.160156 0.515625 8.976562 -0.0507812 7.09375 -1.1875 C 5.21875 -2.320312 3.753906 -3.921875 2.703125 -5.984375 C 1.660156 -8.054688 1.140625 -10.46875 1.140625 -13.21875 C 1.140625 -15.90625 1.671875 -18.265625 2.734375 -20.296875 C 3.804688 -22.328125 5.296875 -23.921875 7.203125 -25.078125 C 9.117188 -26.234375 11.332031 -26.8125 13.84375 -26.8125 C 15.007812 -26.8125 16.253906 -26.640625 17.578125 -26.296875 C 18.910156 -25.953125 20.160156 -25.347656 21.328125 -24.484375 C 21.710938 -25.691406 22.644531 -26.296875 24.125 -26.296875 Z M 13.796875 -4.703125 C 15.378906 -4.703125 16.882812 -5.046875 18.3125 -5.734375 C 19.738281 -6.421875 20.726562 -7.453125 21.28125 -8.828125 L 21.28125 -17.453125 C 20.625 -18.765625 19.632812 -19.78125 18.3125 -20.5 C 16.988281 -21.226562 15.632812 -21.59375 14.25 -21.59375 C 12.082031 -21.59375 10.335938 -20.800781 9.015625 -19.21875 C 7.691406 -17.632812 7.03125 -15.617188 7.03125 -13.171875 C 7.03125 -10.617188 7.648438 -8.566406 8.890625 -7.015625 C 10.128906 -5.472656 11.765625 -4.703125 13.796875 -4.703125 Z M 13.796875 -4.703125 "/></g></g><g style="fill:#373643;fill-opacity:1;"><g transform="translate(286.029946, 199.719304)"><path style="stroke:none" d="M 14.78125 -4.59375 C 15.769531 -4.59375 16.75 -4.726562 17.71875 -5 C 18.6875 -5.28125 19.582031 -5.75 20.40625 -6.40625 C 21.195312 -7.125 21.96875 -7.457031 22.71875 -7.40625 C 23.476562 -7.351562 24.109375 -7.078125 24.609375 -6.578125 C 25.109375 -6.085938 25.359375 -5.46875 25.359375 -4.71875 C 25.359375 -3.976562 25 -3.265625 24.28125 -2.578125 C 23.070312 -1.410156 21.640625 -0.59375 19.984375 -0.125 C 18.335938 0.332031 16.648438 0.546875 14.921875 0.515625 C 12.242188 0.515625 9.878906 -0.0351562 7.828125 -1.140625 C 5.773438 -2.242188 4.171875 -3.773438 3.015625 -5.734375 C 1.867188 -7.691406 1.296875 -9.960938 1.296875 -12.546875 C 1.296875 -15.367188 1.84375 -17.847656 2.9375 -19.984375 C 4.039062 -22.117188 5.597656 -23.789062 7.609375 -25 C 9.628906 -26.207031 12.019531 -26.8125 14.78125 -26.8125 C 17.53125 -26.8125 19.867188 -26.25 21.796875 -25.125 C 23.722656 -24.007812 25.191406 -22.441406 26.203125 -20.421875 C 27.222656 -18.410156 27.734375 -16.0625 27.734375 -13.375 C 27.734375 -12.519531 27.5625 -11.789062 27.21875 -11.1875 C 26.875 -10.582031 25.960938 -10.28125 24.484375 -10.28125 L 7.28125 -10.28125 C 7.757812 -8.59375 8.671875 -7.222656 10.015625 -6.171875 C 11.359375 -5.117188 12.945312 -4.59375 14.78125 -4.59375 Z M 14.828125 -21.703125 C 12.828125 -21.703125 11.15625 -21.070312 9.8125 -19.8125 C 8.46875 -18.550781 7.609375 -16.90625 7.234375 -14.875 L 22.265625 -14.875 C 22.085938 -16.90625 21.414062 -18.550781 20.25 -19.8125 C 19.082031 -21.070312 17.273438 -21.703125 14.828125 -21.703125 Z M 14.828125 -21.703125 "/></g></g><g style="fill:#373643;fill-opacity:1;"><g transform="translate(83.514712, 231.456946)"><path style="stroke:none" d="M 4.8125 0.125 C 4.039062 0.125 3.367188 -0.0078125 2.796875 -0.28125 C 2.222656 -0.550781 1.773438 -0.914062 1.453125 -1.375 C 1.140625 -1.84375 0.957031 -2.359375 0.90625 -2.921875 L 1.703125 -2.921875 C 1.796875 -2.296875 2.085938 -1.742188 2.578125 -1.265625 C 3.066406 -0.785156 3.8125 -0.546875 4.8125 -0.546875 C 5.394531 -0.546875 5.898438 -0.648438 6.328125 -0.859375 C 6.765625 -1.078125 7.097656 -1.367188 7.328125 -1.734375 C 7.566406 -2.109375 7.6875 -2.519531 7.6875 -2.96875 C 7.6875 -3.539062 7.550781 -3.992188 7.28125 -4.328125 C 7.007812 -4.671875 6.664062 -4.925781 6.25 -5.09375 C 5.84375 -5.257812 5.289062 -5.441406 4.59375 -5.640625 C 3.820312 -5.835938 3.203125 -6.035156 2.734375 -6.234375 C 2.273438 -6.441406 1.882812 -6.753906 1.5625 -7.171875 C 1.238281 -7.597656 1.078125 -8.175781 1.078125 -8.90625 C 1.078125 -9.46875 1.222656 -9.984375 1.515625 -10.453125 C 1.816406 -10.921875 2.242188 -11.289062 2.796875 -11.5625 C 3.347656 -11.832031 3.984375 -11.96875 4.703125 -11.96875 C 5.753906 -11.96875 6.597656 -11.707031 7.234375 -11.1875 C 7.878906 -10.664062 8.265625 -10.03125 8.390625 -9.28125 L 7.578125 -9.28125 C 7.503906 -9.582031 7.351562 -9.890625 7.125 -10.203125 C 6.894531 -10.523438 6.566406 -10.789062 6.140625 -11 C 5.722656 -11.207031 5.222656 -11.3125 4.640625 -11.3125 C 3.847656 -11.3125 3.179688 -11.09375 2.640625 -10.65625 C 2.109375 -10.21875 1.84375 -9.640625 1.84375 -8.921875 C 1.84375 -8.347656 1.984375 -7.890625 2.265625 -7.546875 C 2.546875 -7.203125 2.890625 -6.941406 3.296875 -6.765625 C 3.710938 -6.597656 4.269531 -6.425781 4.96875 -6.25 C 5.738281 -6.03125 6.351562 -5.820312 6.8125 -5.625 C 7.269531 -5.425781 7.65625 -5.113281 7.96875 -4.6875 C 8.289062 -4.269531 8.453125 -3.703125 8.453125 -2.984375 C 8.453125 -2.453125 8.3125 -1.953125 8.03125 -1.484375 C 7.75 -1.015625 7.332031 -0.628906 6.78125 -0.328125 C 6.238281 -0.0234375 5.582031 0.125 4.8125 0.125 Z M 4.8125 0.125 "/></g></g><g style="fill:#373643;fill-opacity:1;"><g transform="translate(92.22356, 231.456946)"><path style="stroke:none" d="M 6.140625 0 L 2.140625 -4.203125 L 2.140625 0 L 1.390625 0 L 1.390625 -12.484375 L 2.140625 -12.484375 L 2.140625 -5.015625 L 6.078125 -9.15625 L 7.140625 -9.15625 L 2.703125 -4.609375 L 7.1875 0 Z M 6.140625 0 "/></g></g><g style="fill:#373643;fill-opacity:1;"><g transform="translate(98.957693, 231.456946)"><path style="stroke:none" d="M 1.765625 -11.203125 C 1.585938 -11.203125 1.4375 -11.257812 1.3125 -11.375 C 1.1875 -11.5 1.125 -11.660156 1.125 -11.859375 C 1.125 -12.054688 1.1875 -12.210938 1.3125 -12.328125 C 1.4375 -12.453125 1.585938 -12.515625 1.765625 -12.515625 C 1.953125 -12.515625 2.101562 -12.453125 2.21875 -12.328125 C 2.34375 -12.210938 2.40625 -12.054688 2.40625 -11.859375 C 2.40625 -11.660156 2.34375 -11.5 2.21875 -11.375 C 2.101562 -11.257812 1.953125 -11.203125 1.765625 -11.203125 Z M 2.140625 -9.15625 L 2.140625 0 L 1.390625 0 L 1.390625 -9.15625 Z M 2.140625 -9.15625 "/></g></g><g style="fill:#373643;fill-opacity:1;"><g transform="translate(101.860532, 231.456946)"><path style="stroke:none" d="M 2.140625 -12.484375 L 2.140625 0 L 1.390625 0 L 1.390625 -12.484375 Z M 2.140625 -12.484375 "/></g></g><g style="fill:#373643;fill-opacity:1;"><g transform="translate(104.763372, 231.456946)"><path style="stroke:none" d="M 2.140625 -12.484375 L 2.140625 0 L 1.390625 0 L 1.390625 -12.484375 Z M 2.140625 -12.484375 "/></g></g><g style="fill:#373643;fill-opacity:1;"><g transform="translate(107.666212, 231.456946)"><path style="stroke:none" d="M 4.4375 0.140625 C 3.414062 0.140625 2.582031 -0.0820312 1.9375 -0.53125 C 1.289062 -0.988281 0.925781 -1.632812 0.84375 -2.46875 L 1.625 -2.46875 C 1.675781 -1.863281 1.945312 -1.382812 2.4375 -1.03125 C 2.925781 -0.6875 3.59375 -0.515625 4.4375 -0.515625 C 5.132812 -0.515625 5.6875 -0.691406 6.09375 -1.046875 C 6.507812 -1.410156 6.71875 -1.847656 6.71875 -2.359375 C 6.71875 -2.722656 6.609375 -3.019531 6.390625 -3.25 C 6.171875 -3.476562 5.894531 -3.65625 5.5625 -3.78125 C 5.238281 -3.90625 4.796875 -4.039062 4.234375 -4.1875 C 3.554688 -4.363281 3.007812 -4.539062 2.59375 -4.71875 C 2.175781 -4.894531 1.820312 -5.15625 1.53125 -5.5 C 1.238281 -5.851562 1.09375 -6.320312 1.09375 -6.90625 C 1.09375 -7.332031 1.222656 -7.726562 1.484375 -8.09375 C 1.742188 -8.457031 2.101562 -8.742188 2.5625 -8.953125 C 3.019531 -9.171875 3.546875 -9.28125 4.140625 -9.28125 C 5.085938 -9.28125 5.859375 -9.039062 6.453125 -8.5625 C 7.046875 -8.082031 7.363281 -7.421875 7.40625 -6.578125 L 6.65625 -6.578125 C 6.613281 -7.191406 6.375 -7.6875 5.9375 -8.0625 C 5.5 -8.445312 4.894531 -8.640625 4.125 -8.640625 C 3.46875 -8.640625 2.925781 -8.46875 2.5 -8.125 C 2.070312 -7.789062 1.859375 -7.382812 1.859375 -6.90625 C 1.859375 -6.476562 1.976562 -6.128906 2.21875 -5.859375 C 2.457031 -5.597656 2.753906 -5.394531 3.109375 -5.25 C 3.460938 -5.113281 3.929688 -4.96875 4.515625 -4.8125 C 5.160156 -4.644531 5.675781 -4.476562 6.0625 -4.3125 C 6.457031 -4.144531 6.785156 -3.90625 7.046875 -3.59375 C 7.316406 -3.289062 7.453125 -2.878906 7.453125 -2.359375 C 7.453125 -1.890625 7.320312 -1.460938 7.0625 -1.078125 C 6.8125 -0.691406 6.453125 -0.390625 5.984375 -0.171875 C 5.523438 0.0351562 5.007812 0.140625 4.4375 0.140625 Z M 4.4375 0.140625 "/></g></g><g style="fill:#373643;fill-opacity:1;"><g transform="translate(115.413025, 231.456946)"><path style="stroke:none" d=""/></g></g><g style="fill:#373643;fill-opacity:1;"><g transform="translate(119.53108, 231.456946)"><path style="stroke:none" d="M 4.703125 -11.84375 C 6.710938 -11.84375 8.257812 -11.316406 9.34375 -10.265625 C 10.425781 -9.222656 10.96875 -7.769531 10.96875 -5.90625 C 10.96875 -4.039062 10.425781 -2.585938 9.34375 -1.546875 C 8.257812 -0.515625 6.710938 0 4.703125 0 L 1.390625 0 L 1.390625 -11.84375 Z M 4.703125 -0.640625 C 6.492188 -0.640625 7.851562 -1.101562 8.78125 -2.03125 C 9.71875 -2.957031 10.1875 -4.25 10.1875 -5.90625 C 10.1875 -7.570312 9.71875 -8.867188 8.78125 -9.796875 C 7.851562 -10.734375 6.492188 -11.203125 4.703125 -11.203125 L 2.140625 -11.203125 L 2.140625 -0.640625 Z M 4.703125 -0.640625 "/></g></g><g style="fill:#373643;fill-opacity:1;"><g transform="translate(130.771621, 231.456946)"><path style="stroke:none" d="M 9.640625 -5.203125 C 9.640625 -4.796875 9.628906 -4.488281 9.609375 -4.28125 L 1.6875 -4.28125 C 1.707031 -3.457031 1.882812 -2.765625 2.21875 -2.203125 C 2.5625 -1.640625 3.007812 -1.21875 3.5625 -0.9375 C 4.113281 -0.65625 4.710938 -0.515625 5.359375 -0.515625 C 6.265625 -0.515625 7.019531 -0.738281 7.625 -1.1875 C 8.226562 -1.632812 8.613281 -2.238281 8.78125 -3 L 9.5625 -3 C 9.382812 -2.070312 8.925781 -1.316406 8.1875 -0.734375 C 7.445312 -0.148438 6.503906 0.140625 5.359375 0.140625 C 4.503906 0.140625 3.738281 -0.0507812 3.0625 -0.4375 C 2.394531 -0.820312 1.867188 -1.367188 1.484375 -2.078125 C 1.097656 -2.796875 0.90625 -3.632812 0.90625 -4.59375 C 0.90625 -5.550781 1.09375 -6.382812 1.46875 -7.09375 C 1.851562 -7.800781 2.378906 -8.34375 3.046875 -8.71875 C 3.722656 -9.09375 4.492188 -9.28125 5.359375 -9.28125 C 6.242188 -9.28125 7.007812 -9.09375 7.65625 -8.71875 C 8.300781 -8.34375 8.789062 -7.84375 9.125 -7.21875 C 9.46875 -6.59375 9.640625 -5.921875 9.640625 -5.203125 Z M 8.875 -4.90625 C 8.90625 -5.71875 8.757812 -6.40625 8.4375 -6.96875 C 8.125 -7.53125 7.691406 -7.945312 7.140625 -8.21875 C 6.585938 -8.5 5.988281 -8.640625 5.34375 -8.640625 C 4.707031 -8.640625 4.113281 -8.5 3.5625 -8.21875 C 3.019531 -7.945312 2.578125 -7.53125 2.234375 -6.96875 C 1.890625 -6.40625 1.707031 -5.71875 1.6875 -4.90625 Z M 8.875 -4.90625 "/></g></g><g style="fill:#373643;fill-opacity:1;"><g transform="translate(140.678808, 231.456946)"><path style="stroke:none" d="M 4.484375 -0.828125 L 7.859375 -9.15625 L 8.671875 -9.15625 L 4.875 0 L 4.078125 0 L 0.28125 -9.15625 L 1.109375 -9.15625 Z M 4.484375 -0.828125 "/></g></g><g style="fill:#373643;fill-opacity:1;"><g transform="translate(148.999462, 231.456946)"><path style="stroke:none" d="M 9.640625 -5.203125 C 9.640625 -4.796875 9.628906 -4.488281 9.609375 -4.28125 L 1.6875 -4.28125 C 1.707031 -3.457031 1.882812 -2.765625 2.21875 -2.203125 C 2.5625 -1.640625 3.007812 -1.21875 3.5625 -0.9375 C 4.113281 -0.65625 4.710938 -0.515625 5.359375 -0.515625 C 6.265625 -0.515625 7.019531 -0.738281 7.625 -1.1875 C 8.226562 -1.632812 8.613281 -2.238281 8.78125 -3 L 9.5625 -3 C 9.382812 -2.070312 8.925781 -1.316406 8.1875 -0.734375 C 7.445312 -0.148438 6.503906 0.140625 5.359375 0.140625 C 4.503906 0.140625 3.738281 -0.0507812 3.0625 -0.4375 C 2.394531 -0.820312 1.867188 -1.367188 1.484375 -2.078125 C 1.097656 -2.796875 0.90625 -3.632812 0.90625 -4.59375 C 0.90625 -5.550781 1.09375 -6.382812 1.46875 -7.09375 C 1.851562 -7.800781 2.378906 -8.34375 3.046875 -8.71875 C 3.722656 -9.09375 4.492188 -9.28125 5.359375 -9.28125 C 6.242188 -9.28125 7.007812 -9.09375 7.65625 -8.71875 C 8.300781 -8.34375 8.789062 -7.84375 9.125 -7.21875 C 9.46875 -6.59375 9.640625 -5.921875 9.640625 -5.203125 Z M 8.875 -4.90625 C 8.90625 -5.71875 8.757812 -6.40625 8.4375 -6.96875 C 8.125 -7.53125 7.691406 -7.945312 7.140625 -8.21875 C 6.585938 -8.5 5.988281 -8.640625 5.34375 -8.640625 C 4.707031 -8.640625 4.113281 -8.5 3.5625 -8.21875 C 3.019531 -7.945312 2.578125 -7.53125 2.234375 -6.96875 C 1.890625 -6.40625 1.707031 -5.71875 1.6875 -4.90625 Z M 8.875 -4.90625 "/></g></g><g style="fill:#373643;fill-opacity:1;"><g transform="translate(158.906649, 231.456946)"><path style="stroke:none" d="M 2.140625 -12.484375 L 2.140625 0 L 1.390625 0 L 1.390625 -12.484375 Z M 2.140625 -12.484375 "/></g></g><g style="fill:#373643;fill-opacity:1;"><g transform="translate(161.809489, 231.456946)"><path style="stroke:none" d="M 5.421875 0.140625 C 4.566406 0.140625 3.796875 -0.0507812 3.109375 -0.4375 C 2.421875 -0.820312 1.878906 -1.367188 1.484375 -2.078125 C 1.097656 -2.796875 0.90625 -3.632812 0.90625 -4.59375 C 0.90625 -5.53125 1.101562 -6.359375 1.5 -7.078125 C 1.894531 -7.796875 2.4375 -8.34375 3.125 -8.71875 C 3.820312 -9.09375 4.597656 -9.28125 5.453125 -9.28125 C 6.304688 -9.28125 7.078125 -9.09375 7.765625 -8.71875 C 8.453125 -8.34375 8.988281 -7.800781 9.375 -7.09375 C 9.757812 -6.382812 9.953125 -5.550781 9.953125 -4.59375 C 9.953125 -3.632812 9.753906 -2.796875 9.359375 -2.078125 C 8.972656 -1.367188 8.429688 -0.820312 7.734375 -0.4375 C 7.046875 -0.0507812 6.273438 0.140625 5.421875 0.140625 Z M 5.421875 -0.546875 C 6.078125 -0.546875 6.695312 -0.691406 7.28125 -0.984375 C 7.863281 -1.285156 8.328125 -1.738281 8.671875 -2.34375 C 9.023438 -2.945312 9.203125 -3.695312 9.203125 -4.59375 C 9.203125 -5.46875 9.023438 -6.207031 8.671875 -6.8125 C 8.328125 -7.425781 7.863281 -7.878906 7.28125 -8.171875 C 6.707031 -8.472656 6.09375 -8.625 5.4375 -8.625 C 4.769531 -8.625 4.148438 -8.472656 3.578125 -8.171875 C 3.015625 -7.878906 2.554688 -7.425781 2.203125 -6.8125 C 1.859375 -6.207031 1.6875 -5.46875 1.6875 -4.59375 C 1.6875 -3.695312 1.859375 -2.945312 2.203125 -2.34375 C 2.546875 -1.738281 3 -1.285156 3.5625 -0.984375 C 4.132812 -0.691406 4.753906 -0.546875 5.421875 -0.546875 Z M 5.421875 -0.546875 "/></g></g><g style="fill:#373643;fill-opacity:1;"><g transform="translate(172.054227, 231.456946)"><path style="stroke:none" d="M 2.140625 -6.75 C 2.398438 -7.488281 2.867188 -8.09375 3.546875 -8.5625 C 4.234375 -9.039062 5.0625 -9.28125 6.03125 -9.28125 C 6.882812 -9.28125 7.644531 -9.085938 8.3125 -8.703125 C 8.976562 -8.328125 9.5 -7.78125 9.875 -7.0625 C 10.257812 -6.351562 10.453125 -5.53125 10.453125 -4.59375 C 10.453125 -3.644531 10.257812 -2.8125 9.875 -2.09375 C 9.5 -1.382812 8.976562 -0.832031 8.3125 -0.4375 C 7.644531 -0.0507812 6.882812 0.140625 6.03125 0.140625 C 5.070312 0.140625 4.25 -0.0976562 3.5625 -0.578125 C 2.882812 -1.054688 2.410156 -1.660156 2.140625 -2.390625 L 2.140625 4.3125 L 1.390625 4.3125 L 1.390625 -9.15625 L 2.140625 -9.15625 Z M 9.671875 -4.59375 C 9.671875 -5.425781 9.507812 -6.144531 9.1875 -6.75 C 8.875 -7.351562 8.429688 -7.816406 7.859375 -8.140625 C 7.296875 -8.460938 6.644531 -8.625 5.90625 -8.625 C 5.195312 -8.625 4.554688 -8.457031 3.984375 -8.125 C 3.410156 -7.789062 2.957031 -7.316406 2.625 -6.703125 C 2.300781 -6.085938 2.140625 -5.382812 2.140625 -4.59375 C 2.140625 -3.78125 2.300781 -3.066406 2.625 -2.453125 C 2.957031 -1.835938 3.410156 -1.363281 3.984375 -1.03125 C 4.554688 -0.707031 5.195312 -0.546875 5.90625 -0.546875 C 6.644531 -0.546875 7.296875 -0.707031 7.859375 -1.03125 C 8.429688 -1.351562 8.875 -1.816406 9.1875 -2.421875 C 9.507812 -3.035156 9.671875 -3.757812 9.671875 -4.59375 Z M 9.671875 -4.59375 "/></g></g><g style="fill:#373643;fill-opacity:1;"><g transform="translate(182.771558, 231.456946)"><path style="stroke:none" d="M 12.21875 -9.34375 C 13.257812 -9.34375 14.113281 -9.007812 14.78125 -8.34375 C 15.445312 -7.675781 15.78125 -6.679688 15.78125 -5.359375 L 15.78125 0 L 15.03125 0 L 15.03125 -5.3125 C 15.03125 -6.40625 14.769531 -7.238281 14.25 -7.8125 C 13.726562 -8.394531 13.007812 -8.6875 12.09375 -8.6875 C 11.15625 -8.6875 10.394531 -8.359375 9.8125 -7.703125 C 9.238281 -7.054688 8.953125 -6.113281 8.953125 -4.875 L 8.953125 0 L 8.21875 0 L 8.21875 -5.3125 C 8.21875 -6.40625 7.957031 -7.238281 7.4375 -7.8125 C 6.914062 -8.394531 6.195312 -8.6875 5.28125 -8.6875 C 4.332031 -8.6875 3.570312 -8.359375 3 -7.703125 C 2.425781 -7.054688 2.140625 -6.113281 2.140625 -4.875 L 2.140625 0 L 1.390625 0 L 1.390625 -9.15625 L 2.140625 -9.15625 L 2.140625 -7.171875 C 2.398438 -7.890625 2.816406 -8.429688 3.390625 -8.796875 C 3.972656 -9.160156 4.644531 -9.34375 5.40625 -9.34375 C 6.238281 -9.34375 6.953125 -9.125 7.546875 -8.6875 C 8.148438 -8.257812 8.566406 -7.625 8.796875 -6.78125 C 9.003906 -7.625 9.414062 -8.257812 10.03125 -8.6875 C 10.65625 -9.125 11.382812 -9.34375 12.21875 -9.34375 Z M 12.21875 -9.34375 "/></g></g><g style="fill:#373643;fill-opacity:1;"><g transform="translate(199.227376, 231.456946)"><path style="stroke:none" d="M 9.640625 -5.203125 C 9.640625 -4.796875 9.628906 -4.488281 9.609375 -4.28125 L 1.6875 -4.28125 C 1.707031 -3.457031 1.882812 -2.765625 2.21875 -2.203125 C 2.5625 -1.640625 3.007812 -1.21875 3.5625 -0.9375 C 4.113281 -0.65625 4.710938 -0.515625 5.359375 -0.515625 C 6.265625 -0.515625 7.019531 -0.738281 7.625 -1.1875 C 8.226562 -1.632812 8.613281 -2.238281 8.78125 -3 L 9.5625 -3 C 9.382812 -2.070312 8.925781 -1.316406 8.1875 -0.734375 C 7.445312 -0.148438 6.503906 0.140625 5.359375 0.140625 C 4.503906 0.140625 3.738281 -0.0507812 3.0625 -0.4375 C 2.394531 -0.820312 1.867188 -1.367188 1.484375 -2.078125 C 1.097656 -2.796875 0.90625 -3.632812 0.90625 -4.59375 C 0.90625 -5.550781 1.09375 -6.382812 1.46875 -7.09375 C 1.851562 -7.800781 2.378906 -8.34375 3.046875 -8.71875 C 3.722656 -9.09375 4.492188 -9.28125 5.359375 -9.28125 C 6.242188 -9.28125 7.007812 -9.09375 7.65625 -8.71875 C 8.300781 -8.34375 8.789062 -7.84375 9.125 -7.21875 C 9.46875 -6.59375 9.640625 -5.921875 9.640625 -5.203125 Z M 8.875 -4.90625 C 8.90625 -5.71875 8.757812 -6.40625 8.4375 -6.96875 C 8.125 -7.53125 7.691406 -7.945312 7.140625 -8.21875 C 6.585938 -8.5 5.988281 -8.640625 5.34375 -8.640625 C 4.707031 -8.640625 4.113281 -8.5 3.5625 -8.21875 C 3.019531 -7.945312 2.578125 -7.53125 2.234375 -6.96875 C 1.890625 -6.40625 1.707031 -5.71875 1.6875 -4.90625 Z M 8.875 -4.90625 "/></g></g><g style="fill:#373643;fill-opacity:1;"><g transform="translate(209.134563, 231.456946)"><path style="stroke:none" d="M 5.515625 -9.34375 C 6.609375 -9.34375 7.5 -9.007812 8.1875 -8.34375 C 8.875 -7.675781 9.21875 -6.679688 9.21875 -5.359375 L 9.21875 0 L 8.46875 0 L 8.46875 -5.3125 C 8.46875 -6.40625 8.191406 -7.238281 7.640625 -7.8125 C 7.085938 -8.394531 6.34375 -8.6875 5.40625 -8.6875 C 4.414062 -8.6875 3.625 -8.367188 3.03125 -7.734375 C 2.4375 -7.109375 2.140625 -6.175781 2.140625 -4.9375 L 2.140625 0 L 1.390625 0 L 1.390625 -9.15625 L 2.140625 -9.15625 L 2.140625 -7.21875 C 2.398438 -7.90625 2.832031 -8.429688 3.4375 -8.796875 C 4.039062 -9.160156 4.734375 -9.34375 5.515625 -9.34375 Z M 5.515625 -9.34375 "/></g></g><g style="fill:#373643;fill-opacity:1;"><g transform="translate(219.007997, 231.456946)"><path style="stroke:none" d="M 2.515625 -8.5 L 2.515625 -2.453125 C 2.515625 -1.773438 2.632812 -1.304688 2.875 -1.046875 C 3.125 -0.796875 3.566406 -0.671875 4.203125 -0.671875 L 5.234375 -0.671875 L 5.234375 0 L 4.078125 0 C 3.285156 0 2.695312 -0.1875 2.3125 -0.5625 C 1.9375 -0.9375 1.75 -1.566406 1.75 -2.453125 L 1.75 -8.5 L 0.375 -8.5 L 0.375 -9.15625 L 1.75 -9.15625 L 1.75 -11.484375 L 2.515625 -11.484375 L 2.515625 -9.15625 L 5.234375 -9.15625 L 5.234375 -8.5 Z M 2.515625 -8.5 "/></g></g><g style="fill:#373643;fill-opacity:1;"><g transform="translate(224.223117, 231.456946)"><path style="stroke:none" d=""/></g></g><g style="fill:#373643;fill-opacity:1;"><g transform="translate(228.341172, 231.456946)"><path style="stroke:none" d="M 8.5625 -8.5 C 8.5625 -7.457031 8.234375 -6.644531 7.578125 -6.0625 C 6.921875 -5.488281 5.953125 -5.203125 4.671875 -5.203125 L 2.140625 -5.203125 L 2.140625 0 L 1.390625 0 L 1.390625 -11.84375 L 4.671875 -11.84375 C 5.972656 -11.84375 6.945312 -11.539062 7.59375 -10.9375 C 8.238281 -10.34375 8.5625 -9.53125 8.5625 -8.5 Z M 4.671875 -5.875 C 6.753906 -5.875 7.796875 -6.75 7.796875 -8.5 C 7.796875 -9.363281 7.546875 -10.023438 7.046875 -10.484375 C 6.554688 -10.941406 5.765625 -11.171875 4.671875 -11.171875 L 2.140625 -11.171875 L 2.140625 -5.875 Z M 4.671875 -5.875 "/></g></g><g style="fill:#373643;fill-opacity:1;"><g transform="translate(236.915005, 231.456946)"><path style="stroke:none" d="M 0.90625 -4.59375 C 0.90625 -5.53125 1.09375 -6.351562 1.46875 -7.0625 C 1.851562 -7.78125 2.378906 -8.328125 3.046875 -8.703125 C 3.710938 -9.085938 4.472656 -9.28125 5.328125 -9.28125 C 6.296875 -9.28125 7.117188 -9.039062 7.796875 -8.5625 C 8.472656 -8.09375 8.945312 -7.492188 9.21875 -6.765625 L 9.21875 -9.15625 L 9.96875 -9.15625 L 9.96875 0 L 9.21875 0 L 9.21875 -2.40625 C 8.945312 -1.664062 8.46875 -1.054688 7.78125 -0.578125 C 7.101562 -0.0976562 6.285156 0.140625 5.328125 0.140625 C 4.472656 0.140625 3.710938 -0.0507812 3.046875 -0.4375 C 2.378906 -0.832031 1.851562 -1.382812 1.46875 -2.09375 C 1.09375 -2.8125 0.90625 -3.644531 0.90625 -4.59375 Z M 9.21875 -4.59375 C 9.21875 -5.382812 9.050781 -6.085938 8.71875 -6.703125 C 8.382812 -7.316406 7.929688 -7.789062 7.359375 -8.125 C 6.785156 -8.457031 6.144531 -8.625 5.4375 -8.625 C 4.6875 -8.625 4.03125 -8.460938 3.46875 -8.140625 C 2.90625 -7.816406 2.46875 -7.351562 2.15625 -6.75 C 1.84375 -6.144531 1.6875 -5.425781 1.6875 -4.59375 C 1.6875 -3.757812 1.84375 -3.035156 2.15625 -2.421875 C 2.46875 -1.816406 2.910156 -1.351562 3.484375 -1.03125 C 4.054688 -0.707031 4.707031 -0.546875 5.4375 -0.546875 C 6.144531 -0.546875 6.785156 -0.707031 7.359375 -1.03125 C 7.941406 -1.363281 8.394531 -1.835938 8.71875 -2.453125 C 9.050781 -3.066406 9.21875 -3.78125 9.21875 -4.59375 Z M 9.21875 -4.59375 "/></g></g><g style="fill:#373643;fill-opacity:1;"><g transform="translate(247.632336, 231.456946)"><path style="stroke:none" d="M 6.140625 0 L 2.140625 -4.203125 L 2.140625 0 L 1.390625 0 L 1.390625 -12.484375 L 2.140625 -12.484375 L 2.140625 -5.015625 L 6.078125 -9.15625 L 7.140625 -9.15625 L 2.703125 -4.609375 L 7.1875 0 Z M 6.140625 0 "/></g></g><g style="fill:#373643;fill-opacity:1;"><g transform="translate(254.366469, 231.456946)"><path style="stroke:none" d="M 1.765625 -11.203125 C 1.585938 -11.203125 1.4375 -11.257812 1.3125 -11.375 C 1.1875 -11.5 1.125 -11.660156 1.125 -11.859375 C 1.125 -12.054688 1.1875 -12.210938 1.3125 -12.328125 C 1.4375 -12.453125 1.585938 -12.515625 1.765625 -12.515625 C 1.953125 -12.515625 2.101562 -12.453125 2.21875 -12.328125 C 2.34375 -12.210938 2.40625 -12.054688 2.40625 -11.859375 C 2.40625 -11.660156 2.34375 -11.5 2.21875 -11.375 C 2.101562 -11.257812 1.953125 -11.203125 1.765625 -11.203125 Z M 2.140625 -9.15625 L 2.140625 0 L 1.390625 0 L 1.390625 -9.15625 Z M 2.140625 -9.15625 "/></g></g><g style="fill:#373643;fill-opacity:1;"><g transform="translate(257.269309, 231.456946)"><path style="stroke:none" d="M 4.4375 0.140625 C 3.414062 0.140625 2.582031 -0.0820312 1.9375 -0.53125 C 1.289062 -0.988281 0.925781 -1.632812 0.84375 -2.46875 L 1.625 -2.46875 C 1.675781 -1.863281 1.945312 -1.382812 2.4375 -1.03125 C 2.925781 -0.6875 3.59375 -0.515625 4.4375 -0.515625 C 5.132812 -0.515625 5.6875 -0.691406 6.09375 -1.046875 C 6.507812 -1.410156 6.71875 -1.847656 6.71875 -2.359375 C 6.71875 -2.722656 6.609375 -3.019531 6.390625 -3.25 C 6.171875 -3.476562 5.894531 -3.65625 5.5625 -3.78125 C 5.238281 -3.90625 4.796875 -4.039062 4.234375 -4.1875 C 3.554688 -4.363281 3.007812 -4.539062 2.59375 -4.71875 C 2.175781 -4.894531 1.820312 -5.15625 1.53125 -5.5 C 1.238281 -5.851562 1.09375 -6.320312 1.09375 -6.90625 C 1.09375 -7.332031 1.222656 -7.726562 1.484375 -8.09375 C 1.742188 -8.457031 2.101562 -8.742188 2.5625 -8.953125 C 3.019531 -9.171875 3.546875 -9.28125 4.140625 -9.28125 C 5.085938 -9.28125 5.859375 -9.039062 6.453125 -8.5625 C 7.046875 -8.082031 7.363281 -7.421875 7.40625 -6.578125 L 6.65625 -6.578125 C 6.613281 -7.191406 6.375 -7.6875 5.9375 -8.0625 C 5.5 -8.445312 4.894531 -8.640625 4.125 -8.640625 C 3.46875 -8.640625 2.925781 -8.46875 2.5 -8.125 C 2.070312 -7.789062 1.859375 -7.382812 1.859375 -6.90625 C 1.859375 -6.476562 1.976562 -6.128906 2.21875 -5.859375 C 2.457031 -5.597656 2.753906 -5.394531 3.109375 -5.25 C 3.460938 -5.113281 3.929688 -4.96875 4.515625 -4.8125 C 5.160156 -4.644531 5.675781 -4.476562 6.0625 -4.3125 C 6.457031 -4.144531 6.785156 -3.90625 7.046875 -3.59375 C 7.316406 -3.289062 7.453125 -2.878906 7.453125 -2.359375 C 7.453125 -1.890625 7.320312 -1.460938 7.0625 -1.078125 C 6.8125 -0.691406 6.453125 -0.390625 5.984375 -0.171875 C 5.523438 0.0351562 5.007812 0.140625 4.4375 0.140625 Z M 4.4375 0.140625 "/></g></g><g style="fill:#373643;fill-opacity:1;"><g transform="translate(265.016121, 231.456946)"><path style="stroke:none" d="M 2.515625 -8.5 L 2.515625 -2.453125 C 2.515625 -1.773438 2.632812 -1.304688 2.875 -1.046875 C 3.125 -0.796875 3.566406 -0.671875 4.203125 -0.671875 L 5.234375 -0.671875 L 5.234375 0 L 4.078125 0 C 3.285156 0 2.695312 -0.1875 2.3125 -0.5625 C 1.9375 -0.9375 1.75 -1.566406 1.75 -2.453125 L 1.75 -8.5 L 0.375 -8.5 L 0.375 -9.15625 L 1.75 -9.15625 L 1.75 -11.484375 L 2.515625 -11.484375 L 2.515625 -9.15625 L 5.234375 -9.15625 L 5.234375 -8.5 Z M 2.515625 -8.5 "/></g></g><g style="fill:#373643;fill-opacity:1;"><g transform="translate(270.231241, 231.456946)"><path style="stroke:none" d="M 0.90625 -4.59375 C 0.90625 -5.53125 1.09375 -6.351562 1.46875 -7.0625 C 1.851562 -7.78125 2.378906 -8.328125 3.046875 -8.703125 C 3.710938 -9.085938 4.472656 -9.28125 5.328125 -9.28125 C 6.296875 -9.28125 7.117188 -9.039062 7.796875 -8.5625 C 8.472656 -8.09375 8.945312 -7.492188 9.21875 -6.765625 L 9.21875 -9.15625 L 9.96875 -9.15625 L 9.96875 0 L 9.21875 0 L 9.21875 -2.40625 C 8.945312 -1.664062 8.46875 -1.054688 7.78125 -0.578125 C 7.101562 -0.0976562 6.285156 0.140625 5.328125 0.140625 C 4.472656 0.140625 3.710938 -0.0507812 3.046875 -0.4375 C 2.378906 -0.832031 1.851562 -1.382812 1.46875 -2.09375 C 1.09375 -2.8125 0.90625 -3.644531 0.90625 -4.59375 Z M 9.21875 -4.59375 C 9.21875 -5.382812 9.050781 -6.085938 8.71875 -6.703125 C 8.382812 -7.316406 7.929688 -7.789062 7.359375 -8.125 C 6.785156 -8.457031 6.144531 -8.625 5.4375 -8.625 C 4.6875 -8.625 4.03125 -8.460938 3.46875 -8.140625 C 2.90625 -7.816406 2.46875 -7.351562 2.15625 -6.75 C 1.84375 -6.144531 1.6875 -5.425781 1.6875 -4.59375 C 1.6875 -3.757812 1.84375 -3.035156 2.15625 -2.421875 C 2.46875 -1.816406 2.910156 -1.351562 3.484375 -1.03125 C 4.054688 -0.707031 4.707031 -0.546875 5.4375 -0.546875 C 6.144531 -0.546875 6.785156 -0.707031 7.359375 -1.03125 C 7.941406 -1.363281 8.394531 -1.835938 8.71875 -2.453125 C 9.050781 -3.066406 9.21875 -3.78125 9.21875 -4.59375 Z M 9.21875 -4.59375 "/></g></g><g style="fill:#373643;fill-opacity:1;"><g transform="translate(280.948572, 231.456946)"><path style="stroke:none" d="M 5.515625 -9.34375 C 6.609375 -9.34375 7.5 -9.007812 8.1875 -8.34375 C 8.875 -7.675781 9.21875 -6.679688 9.21875 -5.359375 L 9.21875 0 L 8.46875 0 L 8.46875 -5.3125 C 8.46875 -6.40625 8.191406 -7.238281 7.640625 -7.8125 C 7.085938 -8.394531 6.34375 -8.6875 5.40625 -8.6875 C 4.414062 -8.6875 3.625 -8.367188 3.03125 -7.734375 C 2.4375 -7.109375 2.140625 -6.175781 2.140625 -4.9375 L 2.140625 0 L 1.390625 0 L 1.390625 -9.15625 L 2.140625 -9.15625 L 2.140625 -7.21875 C 2.398438 -7.90625 2.832031 -8.429688 3.4375 -8.796875 C 4.039062 -9.160156 4.734375 -9.34375 5.515625 -9.34375 Z M 5.515625 -9.34375 "/></g></g></g></svg>